<?xml version="1.0" encoding="utf-8"?>
<!DOCTYPE svg PUBLIC "-//W3C//DTD SVG 1.0//EN" "http://www.w3.org/TR/2001/REC-SVG-20010904/DTD/svg10.dtd">
<svg version="1.0" xmlns="http://www.w3.org/2000/svg" width="1024px" height="1024px" viewBox="0 0 1024 1024" preserveAspectRatio="xMidYMid meet">
 <g fill="#00061c">
  <path d="M58.7 681.3 c-0.2 -0.5 0.8 -11.1 2.4 -23.8 1.5 -12.6 5.1 -41.9 7.9 -65 2.7 -23.1 6.4 -53.2 8 -67 1.7 -13.7 4.2 -34.2 5.6 -45.5 5.3 -44.2 7.6 -61.4 8 -62.2 0.3 -0.4 22.4 -0.8 49.2 -0.8 39 0 50.6 0.3 58.2 1.5 12.4 2.1 17.5 3.6 15.8 4.7 -0.8 0.6 -0.5 0.7 1 0.3 2.7 -0.8 18.5 6.2 17.5 7.8 -0.3 0.5 0 0.7 0.8 0.5 1.5 -0.5 9.3 4.3 10.5 6.5 0.5 0.9 0.4 0.9 -0.7 0 -0.7 -0.7 -1.8 -1.3 -2.3 -1.3 -1.4 0.1 2.5 2.4 4.4 2.7 1.7 0.2 13 12 13 13.5 0 0.5 -0.6 0.6 -1.3 0.2 -0.8 -0.5 -0.8 -0.2 0.2 0.9 1.6 2 2.5 2.3 1.5 0.5 -0.5 -0.9 -0.4 -1 0.4 -0.3 2.4 2.3 8.2 14.5 10.2 21.5 2.7 9.5 3.7 27.8 2 37.8 -0.6 3.9 -1.5 7.2 -1.8 7.2 -0.4 0 -0.8 1.5 -0.9 3.4 -0.2 4.7 -6.2 18.1 -11.7 26.4 -8 12 -28.6 30.6 -31.8 28.6 -0.7 -0.4 -0.8 -0.3 -0.4 0.4 0.6 1.1 -7.8 6 -13.2 7.7 -2.1 0.6 -2.3 0.4 -2 -2.2 0.3 -2.5 0.7 -2.8 4.6 -3.1 2.7 -0.2 4.2 -0.8 4.2 -1.7 0 -0.8 3.3 -3.5 7.3 -6.2 9.2 -6.1 22.6 -19.5 28.3 -28.4 16 -24.7 18.7 -56.5 6.8 -79 -1.3 -2.6 -2.4 -5.3 -2.4 -6.2 0 -0.8 -0.7 -1.7 -1.5 -2.1 -0.8 -0.3 -1.5 -1.5 -1.5 -2.6 0 -1.1 -0.6 -2 -1.4 -2 -0.7 0 -1.9 -1.3 -2.6 -3 -0.7 -1.6 -1.8 -3 -2.6 -3 -0.7 0 -3.5 -2.1 -6.2 -4.7 -2.6 -2.7 -6 -5.4 -7.5 -6.2 -1.5 -0.8 -2.7 -1.8 -2.7 -2.3 0 -0.4 -0.9 -0.8 -2 -0.8 -1.1 0 -2 -0.4 -2 -1 0 -0.5 -0.6 -1 -1.4 -1 -0.8 0 -3 -0.9 -4.8 -1.9 -1.8 -1.1 -5.2 -2.4 -7.5 -3.1 -2.4 -0.6 -4.3 -1.5 -4.3 -1.9 0 -0.5 -1.9 -1.1 -4.2 -1.4 -10 -1.1 -22.4 -2.8 -23.8 -3.4 -1.2 -0.4 -1.1 -0.7 0.5 -1.3 1.5 -0.7 1 -0.8 -2 -0.8 -2.2 0 -3.2 0.2 -2.2 0.5 2.4 0.6 1.1 2.3 -1.8 2.3 -2.9 0 -4.2 -1.7 -1.8 -2.3 1 -0.3 -5.4 -0.5 -14.2 -0.5 -8.8 0 -15.2 0.2 -14.2 0.5 2.4 0.6 1.1 2.3 -1.8 2.3 -2.9 0 -4.2 -1.7 -1.8 -2.3 1 -0.3 -8.1 -0.5 -20.2 -0.5 -12.1 0 -21.2 0.2 -20.2 0.5 3.1 0.8 0.7 2.3 -3.8 2.3 -4.2 0 -4.4 0.2 -4.9 3.3 -0.6 3.5 -1 7 -5.6 46.2 -1.7 14.3 -5.1 42.2 -7.5 62 -2.4 19.8 -4.6 38.9 -5 42.5 -0.4 3.6 -1.7 15.1 -3.1 25.5 -2.2 17.2 -4.3 34.3 -5.9 48 -0.3 2.8 -1.2 10.1 -2 16.4 -1.4 10.6 -1.4 11.5 0.3 12.7 0.9 0.7 2.7 1 3.9 0.7 1.3 -0.3 3.1 -0.2 4 0.2 1.7 0.7 1.6 0.8 -0.2 1.5 -1.5 0.7 -1 0.8 2 0.8 2.2 0 3.2 -0.2 2.2 -0.5 -2.4 -0.6 -1.1 -2.3 1.8 -2.3 2.9 0 4.2 1.7 1.8 2.3 -1 0.3 1.8 0.5 6.2 0.5 4.4 0 7.2 -0.2 6.2 -0.5 -2.4 -0.6 -1.1 -2.3 1.8 -2.3 2.9 0 4.2 1.7 1.8 2.3 -1 0.3 0 0.5 2.2 0.5 2.2 0 3.2 -0.2 2.2 -0.5 -2.4 -0.6 -1.1 -2.3 1.8 -2.3 2.9 0 4.2 1.7 1.8 2.3 -1 0.3 0 0.5 2.2 0.5 2.2 0 3.2 -0.2 2.2 -0.5 -3.1 -0.8 -0.7 -2.3 3.9 -2.3 2.4 0 4.4 -0.3 4.4 -0.7 0 -0.5 0.7 -6.6 1.5 -13.8 0.8 -7.1 2 -17.3 2.5 -22.5 3 -27.4 5.7 -49.1 6.4 -49.7 0.4 -0.5 15 -1.1 32.4 -1.4 26.2 -0.4 32.5 -0.8 36.2 -2.2 5.7 -2.1 12 -2.3 12 -0.3 0 1.6 -2.6 2.6 -13.5 5.2 -5.6 1.4 -12.7 1.8 -35.5 2.1 l-28.5 0.3 -1.2 10.2 c-6.3 56.9 -7.7 68.4 -8.3 68.8 -0.3 0.3 -0.6 2.1 -0.6 4 l0.1 3.5 -30.7 0.3 c-16.9 0.1 -30.9 -0.1 -31.1 -0.5z m10.1 -1 c-1 -0.2 -2.6 -0.2 -3.5 0 -1 0.3 -0.2 0.5 1.7 0.5 1.9 0 2.7 -0.2 1.8 -0.5z m141.6 -258.4 c-3.1 -1.2 -3.9 -1 -1.9 0.5 1.1 0.8 2.4 1.2 2.9 0.8 0.5 -0.3 0.1 -0.9 -1 -1.3z"/>
  <path d="M264.7 681.4 c-0.3 -0.3 -0.3 -2 -0.1 -3.7 0.2 -1.8 2.2 -18.7 4.5 -37.7 2.2 -19 5.8 -49.1 8 -67 13.4 -109.3 19 -153.7 19.4 -154.8 0.4 -1.1 11.1 -1.2 57.2 -0.9 49.7 0.3 57.6 0.6 63.3 2.1 3.6 0.9 6.9 2.4 7.3 3.2 0.6 1 1.7 1.4 3.1 1 3.9 -1 25.4 10.3 24 12.6 -0.4 0.7 -0.3 0.8 0.5 0.4 1.5 -1 4.3 1.3 3.4 2.7 -0.4 0.6 -0.1 0.7 0.6 0.2 3.1 -1.8 21.8 23.3 20.7 27.8 -0.2 1 0 1.4 0.7 1 0.6 -0.4 0.8 0.2 0.5 1.5 -0.4 1.2 -0.2 2 0.3 1.7 0.4 -0.3 1.1 0.7 1.5 2.2 0.3 1.5 0.8 3.5 1 4.5 0.7 2.5 -0.6 6.8 -2.1 6.8 -0.7 0 -1.8 -2.6 -2.5 -6.2 -0.8 -3.5 -2.9 -9.2 -4.7 -12.7 -1.8 -3.5 -3.3 -6.8 -3.3 -7.2 0 -1.8 -16.6 -18.1 -21.9 -21.6 -3.1 -2 -5.7 -4 -5.9 -4.5 -0.2 -0.4 -1.1 -0.8 -2.1 -0.8 -0.9 0 -2.1 -0.4 -2.7 -0.9 -1.8 -1.6 -14.7 -6.2 -21.2 -7.5 -3.7 -0.8 -10.1 -1.7 -14.2 -2.1 -8.3 -0.7 -10.3 -1.5 -7.4 -2.6 1 -0.4 -9.1 -0.7 -22.6 -0.7 -13.5 0 -23.7 0.2 -22.7 0.5 2.6 0.7 1 2.3 -2.3 2.3 -3.3 0 -4.9 -1.6 -2.3 -2.3 1 -0.3 -5.2 -0.5 -13.7 -0.5 -8.5 0 -14.7 0.2 -13.7 0.5 2.6 0.7 1 2.3 -2.3 2.3 -3.3 0 -4.9 -1.6 -2.3 -2.3 1 -0.3 0 -0.5 -2.2 -0.5 -2.2 0 -3.2 0.2 -2.2 0.5 2.8 0.7 0.9 2.3 -2.8 2.3 -3.2 0 -3.4 0.2 -3.9 4.3 -0.3 2.3 -1.2 9.6 -2 16.2 -1.6 13 -2.9 23.7 -4.7 38.5 -0.6 5.2 -1.7 14.2 -2.5 20 -0.7 5.8 -3.4 27.4 -5.9 48 -2.5 20.6 -5.3 42.9 -6.1 49.5 -0.8 6.6 -2.1 17.6 -2.9 24.5 -0.8 6.9 -2.1 18.1 -3 25 -2.9 23 -3.6 30.2 -3.2 30.7 0.3 0.2 6.5 0.4 13.8 0.4 13.2 0 17 0.6 13.3 2 -1.3 0.5 -0.7 0.7 2.1 0.7 2.2 0 3.2 -0.2 2.2 -0.5 -2.4 -0.6 -1.1 -2.3 1.8 -2.3 2.9 0 4.2 1.7 1.8 2.3 -1 0.3 0 0.5 2.2 0.5 2.2 0 3.2 -0.2 2.2 -0.5 -2.4 -0.6 -1.1 -2.3 1.8 -2.3 2.9 0 4.2 1.7 1.8 2.3 -1 0.3 0 0.5 2.2 0.5 3 0 3.5 -0.1 2 -0.8 -2.2 -0.9 -1.5 -1.3 3.6 -2.4 2.5 -0.5 2.6 -1 3.3 -8.8 1.1 -13.4 8.4 -74.2 9.2 -76.2 1.3 -3.3 23.5 -3.6 26.7 -0.4 0.9 0.9 1.7 2.1 1.7 2.7 0 0.6 0.4 1.1 0.8 1.1 0.5 0 2.1 2.8 3.7 6.3 1.6 3.4 3.7 7.3 4.6 8.7 0.9 1.4 4 7 7 12.5 2.9 5.5 6.8 12.7 8.6 16 1.8 3.3 4.4 8.3 5.9 11 11.1 21.2 14.1 25.9 17 26.7 1.6 0.5 13 0.9 25.4 0.9 22.1 0.1 26.3 0.5 22.4 2 -1.2 0.5 0.4 0.8 4.3 0.8 3.4 0.1 6.4 -0.3 6.7 -0.8 0.4 -0.5 -0.4 -0.7 -1.6 -0.3 -1.8 0.4 -2 0.2 -1.6 -1.6 0.4 -1.5 0.2 -2.2 -0.8 -2.2 -0.8 0 -1.4 -1 -1.4 -2.5 0 -1.6 -0.6 -2.5 -1.5 -2.5 -0.8 0 -1.5 -0.7 -1.5 -1.5 0 -0.8 -0.3 -1.5 -0.8 -1.5 -0.4 0 -1.8 -2.1 -3.2 -4.7 -1.4 -2.7 -3.3 -5.7 -4.3 -6.8 -1 -1.1 -2.1 -3.1 -2.4 -4.5 -0.3 -1.3 -1.7 -3.6 -3 -5 -1.2 -1.3 -2.3 -3.2 -2.3 -4.2 0 -0.9 -0.6 -2.1 -1.3 -2.5 -0.8 -0.4 -2.4 -2.8 -3.8 -5.3 -1.3 -2.5 -3 -5.1 -3.6 -5.8 -0.7 -0.7 -1.3 -2 -1.3 -2.8 0 -0.8 -0.4 -1.4 -1 -1.4 -0.5 0 -1 -0.6 -1 -1.4 0 -0.8 -0.4 -1.6 -0.8 -1.8 -0.5 -0.1 -4.6 -6.4 -9 -13.8 -6 -9.8 -8.2 -14.3 -8.2 -16.8 0 -5 1.8 -3.7 7.6 5.9 5.4 8.6 6.3 10.5 4.2 9.3 -0.7 -0.4 -0.8 -0.3 -0.4 0.5 0.4 0.6 1.1 0.9 1.6 0.6 0.4 -0.3 1.7 1.1 2.9 3.1 2.4 4 2.6 4.8 0.9 3.8 -0.7 -0.4 -0.8 -0.3 -0.4 0.5 0.4 0.6 1.1 0.9 1.5 0.7 0.4 -0.3 3.9 4.8 7.8 11.2 5 8.1 6.8 11.9 6 12.4 -0.8 0.5 -0.6 0.8 0.5 0.8 2 0 4.2 3.5 3.3 5 -0.4 0.6 -0.3 1 0.2 0.9 2 -0.3 2.7 0.2 1.3 1.1 -1.3 0.8 -1.3 1 0.2 1 2 0 4.2 3.5 3.2 5.2 -0.4 0.6 -0.3 0.8 0.4 0.5 0.5 -0.4 2.2 1.3 3.6 3.7 2.9 5 3.2 6.1 1.4 5 -0.8 -0.4 -1 -0.3 -0.5 0.2 0.5 0.5 1.3 0.9 1.8 0.9 1.5 0 4.8 5.7 4.1 7.3 -0.3 1 -0.1 1.3 0.6 0.8 1.4 -0.8 3.6 3 2.6 4.6 -0.4 0.7 -0.3 0.8 0.4 0.4 1.3 -0.8 3.6 3 2.7 4.4 -1 1.6 -67 1.3 -68.3 -0.2 -2.8 -3.6 -13.3 -24.9 -12.6 -25.9 0.4 -0.7 0.3 -0.9 -0.3 -0.6 -0.6 0.4 -6.5 -9.4 -13.3 -22.1 -6.8 -12.5 -13.7 -25.1 -15.2 -27.9 -1.6 -2.9 -2.4 -5.3 -1.8 -5.3 0.6 0 0.8 -0.5 0.5 -1.1 -0.4 -0.6 -1 -0.8 -1.3 -0.5 -0.3 0.3 -1.1 -0.2 -1.8 -1.2 -1 -1.5 -2.7 -1.8 -10.6 -1.7 l-9.3 0 -0.7 5 c-0.8 6 -7.6 63.7 -8.4 71.5 -0.3 3 -0.8 6.7 -1 8.3 l-0.6 2.7 -30.2 0 c-16.7 0 -30.5 -0.3 -30.9 -0.6z m19.1 -1.1 c-1 -0.2 -2.6 -0.2 -3.5 0 -1 0.3 -0.2 0.5 1.7 0.5 1.9 0 2.7 -0.2 1.8 -0.5z m152 0 c-1 -0.2 -2.6 -0.2 -3.5 0 -1 0.3 -0.2 0.5 1.7 0.5 1.9 0 2.7 -0.2 1.8 -0.5z"/>
  <path d="M928.5 662 c-1 -1.5 -1.1 -2 -1.4 -4.2 -0.1 -0.9 -0.4 -1 -0.9 -0.2 -0.4 0.6 -1.5 1.3 -2.4 1.7 -1.4 0.5 -1.8 0.1 -1.8 -1.8 0 -2.1 0.5 -2.5 2.8 -2.5 4.1 0 5.4 1.3 5 5.1 -0.2 2.6 -0.5 3.1 -1.3 1.9z"/>
  <path d="M823.5 607 c-3.8 -0.5 -9.7 -1.8 -13 -2.8 -5.8 -1.8 -6 -2.1 -6.3 -5.6 -0.3 -3.4 -0.1 -3.6 2.5 -3.6 1.5 0 6.6 1.2 11.3 2.5 16.1 4.8 30.7 4.4 46.9 -1.2 10.1 -3.4 22.5 -10.5 26 -14.7 0.8 -1 2.9 -1.6 5.2 -1.6 3.7 0 3.9 0.1 3.9 3.3 0 2.9 -0.8 3.9 -6.2 7.9 -15.1 11 -29.3 15.7 -49.8 16.3 -7.4 0.2 -16.6 0 -20.5 -0.5z"/>
  <path d="M664.3 605.5 c-26.9 -4.8 -47.9 -19.4 -58.6 -40.8 -4.4 -9 -6.6 -16.8 -7.4 -27.4 l-0.6 -8.3 3.7 0 c3.5 0 3.6 0.1 3.6 3.9 0 4.8 4.2 19.7 7.4 25.9 12.1 23.8 39.6 40.1 68.6 40.5 5.8 0.1 14 -0.2 18.3 -0.7 l7.7 -0.9 0 3.5 c0 4.5 -0.6 4.6 -20 5.3 -10.1 0.3 -17 0 -22.7 -1z"/>
  <path d="M948 601.5 c0 -4.5 0 -4.5 3.5 -4.5 3.5 0 3.5 0 3.5 4.5 0 4.5 0 4.5 -3.5 4.5 -3.5 0 -3.5 0 -3.5 -4.5z"/>
  <path d="M414 583.7 c0 -1.9 1.5 -3 8.3 -6.2 4.5 -2.2 8.8 -4.6 9.6 -5.3 0.8 -0.7 2.6 -2.1 4 -3 10.6 -6.7 26 -23.7 32.1 -35.3 4.3 -8.2 9 -20.9 9 -24.1 0 -2.9 2.8 -2.1 3.5 1.1 0.8 3.6 -4 18.5 -8.6 26.9 -6.3 11.5 -20.8 28 -23.2 26.5 -0.5 -0.3 -0.7 -0.1 -0.4 0.4 0.9 1.4 -2.9 4.7 -4.4 3.7 -0.7 -0.4 -1 -0.3 -0.5 0.4 0.7 1.2 -7.4 7.2 -9.9 7.2 -0.9 0 -1.4 0.4 -1.1 0.8 0.7 1.2 -6.3 4.4 -7.6 3.6 -0.6 -0.4 -0.8 -0.2 -0.5 0.3 0.4 0.6 -1.5 2 -4.2 3.2 -6.1 2.6 -6.1 2.6 -6.1 -0.2z"/>
  <path d="M903 572.1 c0 -1.6 1.7 -5.8 3.8 -9.2 2.2 -3.5 4.5 -8.1 5.1 -10.1 0.7 -2.1 1.6 -3.8 2 -3.8 0.9 0 3.1 -17.8 3.1 -25.2 l0 -5.8 3.5 0 3.5 0 0 8.8 c0 10.2 -1.6 22.6 -3 23 -0.6 0.2 -1 1.8 -1 3.5 0 3.3 -4.5 13.8 -8.1 18.8 -1.6 2.2 -2.8 2.9 -5.5 2.9 -3.1 0 -3.4 -0.3 -3.4 -2.9z"/>
  <path d="M955.2 561.3 c0.2 -4.4 0.7 -5.8 1.8 -5.8 0.8 0 1.9 1 2.5 2.3 0.5 1.2 1.3 2.2 1.7 2.2 0.5 0 0.8 1.6 0.8 3.5 0 3.3 -0.2 3.5 -3.5 3.5 l-3.6 0 0.3 -5.7z"/>
  <path d="M821.1 556.3 c-6.7 -2.4 -15.3 -11.4 -18.1 -18.8 -1.9 -5.4 -2.1 -7.5 -1.8 -21 0.3 -13.1 0.6 -15.6 2.6 -19.6 3.6 -7.2 8.7 -12.5 15.4 -15.8 5.7 -2.9 6.9 -3.1 16.8 -3.1 10.3 0 17 1.2 17 3.1 0 0.5 0.6 0.9 1.4 0.9 2.5 0 9.9 8.5 13 15 3 6.3 3.1 6.9 3.1 20.5 -0.1 16.8 -1.8 22.4 -9.3 30.3 -7.5 7.9 -11.7 9.6 -24.7 9.9 -8.2 0.2 -12.1 -0.2 -15.4 -1.4z m29.2 -51.2 c2.3 -2.3 2.9 -3.8 3.1 -7.9 0.1 -2.9 0.1 -5 -0.1 -4.8 -0.2 0.2 -1.8 -0.9 -3.6 -2.5 -3.7 -3.4 -8.9 -3.8 -12.6 -1 -1.4 1 -3 1.8 -3.5 1.7 -0.6 -0.2 -0.8 -0.1 -0.3 0.1 0.4 0.3 0.7 0.9 0.7 1.4 0 0.6 -0.4 0.8 -0.8 0.5 -0.5 -0.3 -0.8 2.2 -0.8 5.4 0 3.2 0.3 5.7 0.6 5.5 0.4 -0.3 1.6 0.5 2.6 1.6 4.2 4.7 10.1 4.7 14.7 0z"/>
  <path d="M664.9 555.6 c-8.9 -3.2 -14.5 -8.3 -18.6 -17.1 -2.7 -5.7 -2.8 -6.7 -2.8 -20.5 0 -13.9 0.1 -14.8 2.9 -20.7 3.3 -7.3 10.4 -14.4 17.4 -17.6 3.9 -1.8 6.6 -2.2 15.7 -2.2 13.2 0 16.9 1.1 22.9 7 9 8.7 12 18.3 11.4 35.7 -0.4 10.4 -0.9 13.2 -3 17.9 -3.5 7.6 -7.9 12.3 -15 15.9 -5.7 2.8 -6.9 3 -16.7 3 -6 -0.1 -12.2 -0.6 -14.2 -1.4z m27.1 -48.1 c4 -2.1 6 -5.3 6 -9.8 0 -3.1 -0.7 -4.6 -3.4 -7.3 -7.1 -7.1 -17.6 -2.4 -17.6 7.8 0 4.2 2.3 7.6 6.4 9.4 4 1.7 5.1 1.7 8.6 -0.1z"/>
  <path d="M133 541.8 c0 -2.9 1.4 -16.3 3 -29.8 1.7 -13.5 3.5 -28.5 4 -33.4 0.8 -6.4 1.5 -9.3 2.8 -10.2 1.3 -1 6.7 -1.3 21.2 -1.4 27.2 0 35.2 2.1 43.8 11.4 6.9 7.5 8.5 12.2 8.6 25.1 0.1 8.3 -0.4 12.3 -1.8 16.5 -1 3 -2.2 5.7 -2.6 6 -0.4 0.3 -1.5 1.9 -2.3 3.7 -0.9 1.7 -3.6 4.7 -5.9 6.6 -10.9 8.8 -19.6 10.7 -49.4 10.7 l-21.4 0 0 -5.2z m43 0.8 c0 -0.5 1.6 -0.6 3.5 -0.3 2.1 0.3 3.3 0.2 3 -0.4 -0.4 -0.5 0.1 -0.9 1 -0.9 3.8 0 14.4 -6.1 18.7 -10.8 6 -6.4 8.5 -11.5 10 -20.2 1.1 -6.2 1 -8 -0.5 -13.6 -1.6 -6.3 -5.5 -13.1 -9.3 -16.6 -1.1 -0.9 -4 -2.7 -6.6 -4.1 -2.6 -1.4 -4.5 -2.6 -4.3 -2.8 0.6 -0.7 -3.8 -0.9 -25.5 -1.5 l-21.5 -0.6 -0.3 6.4 c-0.2 3.5 -1.9 19.2 -3.7 35 -1.9 15.8 -3.5 29.2 -3.5 29.7 0 1.3 3.9 1.6 22.7 1.6 9 0 16.3 -0.4 16.3 -0.9z"/>
  <path d="M341 545.5 c0 -0.8 -0.4 -1.5 -1 -1.5 -0.5 0 -1 -1.8 -1 -4 0 -3.4 5.6 -54 7.6 -68.2 l0.7 -4.8 22.1 0 c31.1 0 39.3 2.1 48.1 12.2 5.8 6.6 7.7 12 8.3 22.4 1.2 24.2 -10 38.9 -33.6 43.9 -10.5 2.2 -51.2 2.2 -51.2 0z m53 -4.9 c3 -1 7 -2.6 8.8 -3.7 1.9 -1.1 3.8 -1.7 4.3 -1.3 0.5 0.3 0.9 0.2 0.7 -0.3 -0.1 -0.4 1.7 -2.8 4 -5.2 2.3 -2.5 5.4 -7 6.9 -10 2.4 -4.9 2.7 -6.8 2.7 -15.1 0 -9.8 -1.3 -14.2 -6.5 -20.9 -1 -1.3 -1.6 -2.8 -1.2 -3.4 0.3 -0.5 0.2 -0.7 -0.4 -0.4 -0.5 0.4 -2.8 -0.7 -4.9 -2.2 -7.8 -5.7 -11.9 -6.5 -35.5 -6.9 l-21.7 -0.3 -0.5 3.3 c-0.3 1.8 -1.6 12.1 -2.8 22.8 -1.2 10.7 -2.5 19.7 -2.8 20 -0.3 0.3 -0.8 4.3 -0.9 9 -0.2 4.7 -0.7 10.2 -1.2 12.3 -0.7 3.3 -0.5 3.9 1 4.5 1 0.4 11.5 0.4 23.2 0.1 16 -0.5 22.7 -1.1 26.8 -2.3z"/>
  <path d="M913.6 507.8 c-0.3 -1.3 -0.6 -3.8 -0.6 -5.5 0 -3.1 0.2 -3.3 3.4 -3.3 3.8 0 4.6 1.2 4.6 7.1 0 3.8 -0.1 3.9 -3.4 3.9 -2.6 0 -3.5 -0.5 -4 -2.2z"/>
  <path d="M601 501 c0 -2.2 0.5 -4 1 -4 0.6 0 1 -1.1 1 -2.5 0 -5.2 8 -18.5 11.1 -18.5 1.4 0 1.9 -0.7 1.9 -2.8 0 -2 1.3 -4.1 4.8 -7.4 9.1 -8.8 21.5 -16.8 26.2 -16.8 1.1 0 2 -0.4 2 -0.9 0 -0.5 3 -1.7 6.8 -2.7 8.4 -2.4 36.6 -2.7 45 -0.6 5 1.3 5.2 1.5 5.2 4.8 0 3.2 -0.2 3.4 -3.4 3.4 -1.9 0 -6.3 -0.7 -9.8 -1.6 -4.6 -1.2 -9 -1.5 -16.3 -1.2 -9 0.5 -23.2 3.3 -24.5 4.9 -0.3 0.4 -2.8 1.8 -5.5 3.2 -6 3 -15.7 10.2 -20.4 15.1 -1.9 2 -4.3 3.6 -5.3 3.6 -1.2 0 -1.8 0.8 -1.8 2.4 0 1.3 -1.5 4.9 -3.4 7.9 -1.8 3.1 -3.9 7 -4.6 8.7 -0.7 1.6 -1.6 3 -2.1 3 -0.5 0 -0.9 1.4 -0.9 3 0 2.8 -0.3 3 -3.5 3 -3.4 0 -3.5 -0.1 -3.5 -4z"/>
  <path d="M755 502.1 c0 -0.6 -0.8 -1.1 -1.7 -1.1 -1.2 0 -3 -2.3 -5.2 -6.3 -1.9 -3.4 -5.6 -9 -8.2 -12.4 -3.4 -4.3 -4.9 -7.2 -4.9 -9.3 0 -2.7 -0.3 -3 -2.9 -3 -2 0 -5.1 -1.6 -9.3 -4.8 -3.5 -2.6 -7.8 -5.4 -9.6 -6.1 -2.7 -1.1 -3.2 -1.9 -3.2 -4.7 0 -3.3 0.1 -3.4 3.8 -3.4 2.8 0 5.6 1.1 10.3 4.1 9.2 5.9 10.9 7.7 10.9 11.6 0 3.1 0.2 3.3 3.3 3.3 2.3 0 4.1 0.8 5.9 2.8 3.1 3.3 10.2 13.7 11.9 17.4 l1.2 2.7 4.8 -7.8 c9.1 -14.8 23.7 -28 38.3 -34.7 10.4 -4.8 18.4 -6.5 32.7 -7.1 13.7 -0.6 29.9 0.9 29.9 2.8 0 0.5 1.3 0.9 2.9 0.9 4.9 0 6.1 0.9 6.1 4.7 l0 3.6 -5.1 -0.5 c-2.8 -0.3 -5.4 -1 -5.8 -1.5 -0.3 -0.5 -4.8 -1.6 -9.9 -2.3 -34.1 -4.8 -63.8 10.3 -83.3 42.3 -5.3 8.6 -5.9 9.2 -9.3 9.5 -2.1 0.2 -3.6 -0.1 -3.6 -0.7z"/>
  <path d="M478.7 495 c-0.4 -4.4 -0.2 -7.9 0.3 -8.4 0.7 -0.7 1 -0.3 1.1 1 0.1 1 0.5 0.3 0.9 -1.6 l0.7 -3.5 0.2 3.5 c0.1 1.9 0.4 4.5 0.7 5.8 0.4 1.3 0.2 2.2 -0.5 2.2 -0.7 0 -1 -0.4 -0.7 -0.8 0.2 -0.4 0.1 -1.4 -0.5 -2.2 -0.6 -1.1 -0.9 -0.6 -0.9 1.8 0 2.2 0.5 3.2 1.5 3.2 0.8 0 1.5 0.9 1.5 2 0 1.1 -0.6 2 -1.4 2 -0.8 0 -1.6 0.6 -1.9 1.3 -0.2 0.6 -0.7 -2.2 -1 -6.3z"/>
  <path d="M908.2 494 c-0.6 -1.1 -1.2 -3.3 -1.2 -5 0 -2.8 0.3 -3 3.5 -3 3.9 0 5.5 2 5.5 6.9 0 2.8 -0.3 3.1 -3.3 3.1 -2.1 0 -3.6 -0.7 -4.5 -2z"/>
  <path d="M895.3 476.1 c-4 -4.4 -10.4 -10 -14.3 -12.7 -6.3 -4.3 -7 -5.1 -7 -8.1 0 -3.1 0.2 -3.3 3.3 -3.3 8.4 0 31.7 21.1 31.7 28.8 0 3 -0.2 3.2 -3.2 3.1 -2.8 0 -4.4 -1.2 -10.5 -7.8z"/>
  <path d="M702 371.5 c1 -1.2 1 -1.5 -0.2 -1.5 -1.4 0 -5.8 -4 -5.8 -5.2 0 -0.3 3.7 -0.6 8.2 -0.6 5 0 8.4 -0.5 8.6 -1.1 0.2 -0.6 2.4 -1.1 4.8 -1.1 4.4 0 4.4 0 4.4 3.5 0 3.4 -0.1 3.5 -4 3.5 -2.2 0 -4 0.4 -4 0.9 0 1 -7.6 3.1 -11.1 3.1 -1.8 0 -1.9 -0.2 -0.9 -1.5z"/>
  <path d="M818.8 371.7 c-2.1 -0.6 -3.8 -1.4 -3.8 -1.9 0 -0.4 -1.6 -0.8 -3.5 -0.8 -1.9 0 -3.5 -0.4 -3.5 -1 0 -0.5 -2.2 -1 -5 -1 l-5 0 0 -3.5 0 -3.5 5 0 c2.8 0 5 0.5 5 1 0 0.6 1.8 1 4 1 2.2 0 4 0.5 4 1 0 0.6 1.3 1 3 1 3.7 0 12 2.2 12 3.2 0 0.4 -1 1.4 -2.2 2.3 -2 1.3 -2.1 1.7 -0.8 2.5 2 1.3 -4.2 1.1 -9.2 -0.3z"/>
  <path d="M723 363.5 c0 -3.4 0.1 -3.5 4 -3.5 3.9 0 4 0.1 4 3.5 0 3.4 -0.1 3.5 -4 3.5 -3.9 0 -4 -0.1 -4 -3.5z"/>
  <path d="M735 361.8 c0 -3.4 0.1 -3.5 4.6 -4.2 2.6 -0.3 6.4 -0.6 8.5 -0.6 3.8 0 3.9 0.1 3.9 3.5 0 3 -0.3 3.5 -2.4 3.5 -1.2 0 -5.1 0.3 -8.5 0.6 l-6.1 0.7 0 -3.5z"/>
  <path d="M785 361.5 l0 -3.5 5.5 0 5.5 0 0 3.5 0 3.5 -5.5 0 -5.5 0 0 -3.5z"/>
 </g>
 <g fill="#4a2412">
  <path d="M744 634.5 c-0.8 -0.2 -3.2 -0.6 -5.3 -1 -2.1 -0.3 -3.5 -1 -3.2 -1.5 0.3 -0.6 -0.1 -0.7 -0.9 -0.4 -3.7 1.4 -17.8 -8.5 -25.1 -17.8 -6.9 -8.8 -8 -10.8 -6.3 -11.9 1 -0.7 1 -0.9 0.1 -0.9 -2.1 0 -1.5 -3.5 1 -5.8 3.5 -3.3 11.6 -3 20.6 0.8 18.6 8 39.3 7.8 60 -0.4 6.8 -2.7 14.7 -3.4 18.2 -1.6 1.4 0.8 1.9 2.1 1.9 5.4 0 3.6 -0.8 5.4 -4.3 10.2 -9.8 13.2 -21.8 21.7 -34.5 24.3 -4.8 1 -18.5 1.3 -22.2 0.6z"/>
 </g>
 <g fill="#023868">
  <path d="M998.2 693.4 c0.4 -0.5 -1.7 -0.9 -4.5 -0.9 -6.4 0 -17.8 -2.5 -17.1 -3.6 0.3 -0.5 -0.3 -0.6 -1.2 -0.2 -1.2 0.4 -1.5 0.2 -1.2 -0.8 0.6 -1.8 4.5 -1.7 17.3 0.6 8.4 1.4 10.9 1.5 15.5 0.5 3 -0.6 7.5 -1.3 10 -1.5 2.5 -0.2 3.3 -0.1 1.8 0.2 -1.6 0.2 -2.8 0.8 -2.8 1.3 0 0.5 0.8 0.7 1.8 0.4 0.9 -0.3 0 0.4 -2 1.5 -3.8 2.1 -18.6 4.2 -17.6 2.5z"/>
  <path d="M962.8 684.3 c-3.2 -1.4 -5.5 -2.9 -5.3 -3.3 0.3 -0.4 -0.5 -0.8 -1.8 -0.8 -3 0 -12.8 -6.2 -12 -7.6 0.3 -0.6 0.3 -0.8 -0.2 -0.4 -0.9 0.9 -4.5 -0.9 -4.5 -2.2 0 -0.6 1.4 -1 3.1 -1 3.5 0 9.9 3.5 9.9 5.4 0 0.7 2.3 1.8 5 2.5 2.8 0.7 5 1.6 5 2.1 0 0.4 1.6 1.1 3.5 1.4 3.1 0.6 3.5 1.1 3.5 3.6 0 1.7 -0.1 3 -0.2 3 -0.2 0 -2.9 -1.2 -6 -2.7z"/>
  <path d="M117.6 681.1 c-0.4 -0.5 -13 -0.9 -28.7 -0.9 -15.4 0 -28.3 -0.2 -28.6 -0.6 -1.1 -1.1 -1.2 -8 -0.2 -9.2 0.6 -0.8 0.8 -2.7 0.4 -4.4 -0.4 -1.7 -0.2 -3.6 0.3 -4.3 1.3 -1.5 2.4 -9.1 2.7 -17.7 0.1 -3.6 0.5 -7.2 0.8 -8 0.3 -0.8 0.6 -2.6 0.6 -4 0 -1.4 0.4 -4.5 1 -7 0.6 -2.5 1.3 -5.2 1.5 -6 0.1 -0.8 -0.2 -2.2 -0.7 -3.1 -0.7 -1.2 -0.6 -2.3 0.6 -3.9 1.2 -1.8 1.4 -2.7 0.5 -3.7 -0.8 -1 -0.8 -2 0.2 -3.8 0.7 -1.3 1 -3.4 0.7 -4.6 -0.3 -1.3 -0.2 -2.8 0.4 -3.5 0.9 -1 3.5 -22.2 3.9 -30.4 0.3 -9 0.7 -11.4 1.7 -11.7 0.8 -0.3 0.8 -1.4 0.1 -4 -0.7 -2.7 -0.7 -3.8 0.3 -4.3 0.8 -0.5 1 -2.1 0.6 -4.3 -0.3 -2 -0.1 -3.7 0.3 -3.9 0.5 -0.2 1.1 -3.7 1.2 -7.8 0.2 -4.8 0.8 -8.1 1.8 -9.2 2.1 -2.6 3 -2.2 3 1.2 0 2 0.5 3 1.5 3 0.8 0 1.5 0.5 1.5 1 0 0.6 1.4 1 3 1 1.8 0 3 0.5 3 1.3 0 1.1 3.9 2.6 11.2 4.1 1.7 0.4 2.8 1.4 3.1 2.9 0.4 2 0.4 1.9 0.6 -0.4 0.1 -3 1.7 -3.9 6.7 -3.9 2.7 0 3.4 -0.4 3.4 -2 0 -1.7 0.7 -2 5 -2 2.8 0 5 -0.4 5 -1 0 -0.5 0.7 -1 1.6 -1 1.8 0 4.4 -2.3 4.4 -3.9 0 -0.6 1.4 -1.1 3.1 -1.1 l3.2 0 -0.8 5.8 c-0.4 3.1 -0.9 8.6 -1 12.1 l-0.3 6.3 22.6 -0.5 c24.9 -0.5 23.7 -0.4 30.6 -3.5 2.7 -1.2 5.1 -2 5.3 -1.8 0.7 0.7 12 -10.9 12.7 -13.1 0.4 -1.1 1.3 -2.4 2.1 -2.7 1.1 -0.4 1.5 0.3 1.5 2.9 0 1.9 -0.4 3.5 -1 3.5 -1.5 0 -1.2 7 0.4 8.6 0.8 0.8 2.4 1.4 3.5 1.4 1.2 0 2.1 0.5 2.1 1 0 0.6 3 1 7.1 1 3.9 0 7.9 0.5 9.1 1.1 1.6 0.9 2.3 0.7 3.5 -1 0.9 -1.3 2.5 -2.1 4.4 -2.1 2.4 0 3.2 -0.6 4.1 -3 1.1 -3.2 3.4 -5 6.6 -5 1.4 0 2.1 -0.9 2.5 -3 0.6 -2.5 1.1 -3 3.7 -3 2.7 0 3 -0.3 3 -3 0 -2.8 0.3 -3 3.5 -3 3.3 0 3.5 0.2 3.5 3.5 0 3.1 -0.3 3.5 -2.7 3.5 -2.1 0 -2.4 0.3 -1.5 1.2 3.1 3.1 -1.2 16.6 -7.5 23.4 -1.2 1.3 -2 2.4 -1.7 2.4 0.3 0 -1.3 2.1 -3.5 4.6 -2.2 2.6 -3.8 5.1 -3.4 5.7 0.3 0.5 0.1 0.7 -0.4 0.4 -1.3 -0.8 -3.6 1.7 -2.5 2.8 0.4 0.5 0.2 0.5 -0.5 0.1 -0.6 -0.3 -1.4 -0.2 -1.7 0.3 -0.9 1.4 -14.8 11.7 -16.9 12.4 -1.1 0.4 -1.5 1.2 -1.1 1.9 0.4 0.7 0.4 1 0 0.6 -0.4 -0.3 -2.3 0.4 -4.2 1.7 -2 1.3 -4.1 2.2 -4.9 1.9 -0.7 -0.3 -2.3 0.4 -3.4 1.5 -2 2 -3.9 2.6 -6.8 2.2 -0.7 -0.1 -2.3 0.4 -3.5 1.1 -2.6 1.5 -2.9 1.5 -8.1 1.7 -2.3 0.1 -3.6 0.5 -3.2 1.1 0.3 0.6 0.1 1 -0.4 1 -0.6 0 -1.1 -0.5 -1.1 -1.1 0 -0.8 -1.2 -0.9 -3.7 -0.4 -2.1 0.5 -14.6 0.7 -27.8 0.6 -29.2 -0.3 -27.9 -0.8 -28.5 11.9 -0.2 4.7 -0.4 10.6 -0.4 13.2 -0.1 2.5 -0.4 4.4 -0.8 4.1 -0.7 -0.4 -1.2 3 -1 6.7 0 0.8 -0.4 2.2 -0.8 3.1 -0.6 1 -0.6 2.9 0 4.8 0.5 1.7 0.5 2.9 0 2.6 -1.3 -0.8 -2 3.6 -0.7 5.6 0.8 1.3 0.8 2.4 -0.2 4.3 -0.8 1.3 -1.1 3.6 -0.9 5 0.3 1.4 0 2.7 -0.6 2.9 -0.6 0.2 -1 2.3 -1 4.8 0 2.4 -0.5 4.7 -1 5.1 -0.7 0.5 -0.7 1.7 0.1 3.8 0.6 1.6 0.7 3 0.2 3 -0.5 0 -0.9 1.8 -0.9 4 0 3.7 -1.1 5.2 -2.4 3.1z"/>
  <path d="M265.5 675.3 c0.1 -3 0.7 -5.9 1.2 -6.4 0.7 -0.7 0.8 -2.2 0.2 -4.1 -0.4 -1.7 -0.5 -3.8 0 -4.7 0.5 -0.9 1.1 -3.6 1.5 -6.1 0.9 -6.8 1.7 -13.1 2.1 -17 0.1 -1.9 0.8 -7.7 1.5 -12.9 0.6 -5.1 0.9 -10.3 0.6 -11.4 -0.3 -1.2 0 -2.7 0.6 -3.4 0.6 -0.7 0.8 -2.4 0.6 -3.8 -0.3 -1.4 -0.1 -2.5 0.3 -2.5 0.5 0 0.9 -2.2 0.9 -4.9 0 -2.8 0.4 -5.2 1 -5.6 0.6 -0.4 0.6 -1.5 0 -3.1 -0.6 -1.6 -0.6 -3.1 0 -4.2 0.5 -0.9 2.1 -10.9 3.5 -22.2 3.3 -26.4 3.4 -27.3 3.9 -35 0.3 -3.6 0.8 -7.3 1.1 -8.3 0.4 -0.9 0.5 -2.9 0.2 -4.2 -0.2 -1.4 0 -2.8 0.4 -3.1 0.5 -0.3 0.9 -1.7 0.9 -3.2 0 -4.3 1.1 -7.2 2.7 -7.2 1.3 0 1.4 1.2 0.8 7.5 -0.5 5.2 -0.3 7.5 0.4 7.5 0.6 0 1.1 1.6 1.1 3.6 0 1.9 0.7 4.2 1.5 5 0.8 0.9 1.5 2.4 1.5 3.5 0 1 0.5 1.9 1.1 1.9 1.5 0 3.8 3.1 3.9 5.2 0 1.3 1.2 1.7 5.5 2 3 0.1 5.5 0 5.5 -0.4 0 -0.5 1.3 -0.8 3 -0.8 4.1 0 11 -3.1 11 -5 0 -1.8 3.4 -5 5.3 -5 2.7 -0.1 4.7 -2.8 4.7 -6.4 0 -2 0.4 -3.6 0.9 -3.6 0.5 0 1.3 -0.9 1.6 -2 0.5 -1.5 1.5 -2 4.5 -2 3.6 0 3.8 0.2 3.5 2.8 -0.2 1.5 -0.6 6.3 -1 10.7 -0.5 4.4 -1.1 9.2 -1.5 10.7 -0.6 1.8 -0.3 3.3 0.7 4.8 1.5 2.1 2 2.1 24.9 1.9 12.9 -0.1 23.4 -0.5 23.4 -0.9 0 -0.4 1.2 -1.1 2.8 -1.5 4.4 -1.1 14.2 -5.7 14.2 -6.7 0 -0.5 0.4 -0.7 0.9 -0.4 0.5 0.3 1.1 0 1.4 -0.7 0.3 -0.9 1.6 -1.2 3.5 -0.9 3.1 0.4 5.1 3.3 5.3 7.5 0.1 1.7 0.2 1.8 0.6 0.5 0.6 -2.5 9.3 -2.6 9.3 -0.2 0 0.8 0.7 2.2 1.5 3 1.3 1.4 1.5 1.4 1.5 0 0 -2.3 13.8 -2.3 14.6 -0.1 0.9 2.2 5.4 2 5.4 -0.3 0 -2.7 2 -4.2 5.7 -4.2 2.9 0 3.3 0.3 3.3 2.5 0 1.4 0.5 2.5 1 2.5 0.6 0 1 -0.7 1 -1.5 0 -0.8 0.5 -1.5 1 -1.5 0.6 0 1 -0.7 1 -1.5 0 -0.9 1 -1.5 2.6 -1.5 2.1 0 2.5 0.3 1.9 1.8 -0.4 0.9 -0.8 2.3 -0.8 2.9 0 0.7 -0.2 1.1 -0.5 0.8 -0.3 -0.2 -1.7 1.2 -3.2 3.3 -5.1 7.1 -21.8 23.2 -24 23.2 -0.5 0 -1 0.4 -1 0.8 0 0.4 -2.1 2.1 -4.7 3.8 -2.5 1.6 -5.2 3.5 -6 4.2 -1.1 1.1 -1.3 1.1 -1.3 0 0 -0.8 -0.3 -0.9 -0.8 -0.3 -0.4 0.6 -2.4 1.9 -4.4 3 -2.1 1.1 -3.8 2.3 -3.8 2.8 0 0.4 -0.3 0.6 -0.8 0.3 -0.4 -0.2 -1.6 0.2 -2.6 1 -1.6 1.1 -1.7 1.6 -0.5 3 0.7 0.9 1.4 2.2 1.5 3 0.2 1.1 5.2 10.2 8.5 15.4 0.5 0.8 1.2 2.3 1.5 3.3 0.4 0.9 1 1.7 1.5 1.7 0.5 0 0.9 0.5 0.9 1.1 0 0.6 1.2 2.7 2.8 4.7 1.5 2 2.1 3.2 1.4 2.8 -1.1 -0.7 -1.1 -0.4 0 1.3 0.7 1.2 2.1 2.4 3.1 2.7 0.9 0.3 1.5 1 1.2 1.5 -0.4 0.5 -0.2 0.9 0.3 0.9 0.9 0 2.5 3.7 2.3 5.3 -0.1 0.4 0.6 0.7 1.5 0.7 0.8 0 1.3 0.4 0.9 0.9 -0.3 0.5 0.2 1.7 1.1 2.6 0.9 0.9 1.4 1.8 1.1 2.2 -0.3 0.3 0.5 1.7 1.8 3.1 1.3 1.4 2.2 2.9 1.9 3.4 -0.3 0.4 0 0.8 0.6 0.8 0.6 0 0.8 0.5 0.5 1 -0.3 0.6 -0.2 1 0.3 1 0.5 0 1.7 1.8 2.7 4 1 2.1 2.2 3.8 2.7 3.7 0.6 -0.1 1.2 0.9 1.4 2.3 0.3 1.4 0.9 2.7 1.4 2.8 0.6 0.2 0.8 0.8 0.5 1.3 -0.3 0.4 0.3 1.4 1.5 2.1 1.1 0.7 2 1.8 2 2.5 0 0.6 0.6 1.3 1.2 1.5 0.7 0.3 1.3 1.3 1.3 2.4 0 1 0.6 1.8 1.3 1.6 0.6 -0.1 1.3 0.1 1.3 0.5 0.7 4.8 0.6 6.5 -0.5 6.9 -1.8 0.7 -57.6 1.1 -60.9 0.5 -2 -0.4 -3.6 -2 -5.6 -5.4 -1.5 -2.6 -3.1 -4.4 -3.5 -4 -0.4 0.4 -0.4 -0.1 0 -1.1 0.6 -1.5 0.4 -1.7 -0.6 -1.1 -0.9 0.5 -1.1 0.4 -0.6 -0.3 0.7 -1.2 -2.6 -8.6 -4.4 -9.7 -0.5 -0.3 -1 -1.3 -1 -2.1 0 -0.8 -1.2 -3.3 -2.7 -5.7 -1.5 -2.3 -4.1 -6.9 -5.9 -10.2 -8.9 -17.2 -11.9 -22.3 -12.8 -21.8 -0.5 0.3 -0.6 0.1 -0.2 -0.6 0.4 -0.6 -0.1 -2.3 -1.1 -3.9 -1 -1.5 -3.2 -5.6 -4.8 -9.2 -2.9 -6.4 -6.4 -11 -8.5 -11 -0.5 0 -1 -0.3 -1 -0.7 0 -0.5 -3.3 -0.8 -7.4 -0.8 -5.5 0 -7.2 0.3 -6.9 1.3 0.3 0.8 0 1 -1 0.6 -0.9 -0.3 -1.7 0.2 -2.1 1.3 -0.5 1.7 -3.3 21.2 -4.1 28.3 -1 10.8 -1.7 15.5 -2 15.9 -0.2 0.2 0 1.2 0.5 2.1 0.7 1.3 0.6 1.9 -0.3 2.3 -1.3 0.5 -2 7.1 -2.1 20.5 -0.1 2.8 -0.5 5.2 -1 5.2 -0.4 0 -0.5 2 -0.2 4.4 0.4 2.5 0.3 4.7 -0.3 5 -0.5 0.3 -14.4 0.8 -30.8 1 l-29.9 0.3 0.1 -5.4z"/>
  <path d="M934.9 667.3 c-1.8 -2 -1.9 -2.4 -0.4 -1.3 1.8 1.4 1.9 1.4 0.6 -0.2 -0.7 -1 -1.7 -1.6 -2.1 -1.3 -0.9 0.5 -6 -3.2 -5.9 -4.3 0.4 -2.8 -0.2 -3.2 -2.6 -1.6 -2.4 1.6 -2.5 1.6 -2.5 -1 0 -1.4 2.1 -5.7 4.6 -9.6 6.2 -9.7 13.5 -25.1 17.5 -37.3 1.9 -5.6 3.7 -10.3 4.2 -10.5 0.4 -0.2 0.7 -1.3 0.7 -2.5 0 -1.2 0.9 -6.5 2 -11.7 1.1 -5.2 2.5 -14.8 3.2 -21.3 0.7 -6.4 1.6 -11.6 2.1 -11.4 0.5 0.1 1.6 1.6 2.5 3.2 0.9 1.7 2 3.2 2.5 3.3 2.9 1.3 -2.7 34.4 -9.4 55.2 -3.2 9.9 -11.8 28.9 -16.9 37.2 -1.7 2.7 -3 5.3 -3 5.9 0 1.3 2 3.3 4.3 4.2 1.2 0.4 1.7 1.7 1.7 4.2 0 1.9 -0.1 3.5 -0.3 3.5 -0.2 0 -1.4 -1.2 -2.8 -2.7z m23.4 -109.4 c-0.5 -0.5 -0.7 0.7 -0.4 2.9 0.5 3.4 0.6 3.5 0.9 0.8 0.2 -1.6 0 -3.2 -0.5 -3.7z"/>
  <path d="M1016.1 630.7 c-1.6 -1.6 -1.5 -7.8 0.2 -7.1 1.1 0.4 4.7 6.4 4.7 7.7 0 0.8 -3.9 0.4 -4.9 -0.6z"/>
  <path d="M1010.6 620.4 c-0.3 -0.9 -0.6 -2.4 -0.6 -3.5 0 -1 -0.7 -1.9 -1.5 -1.9 -0.8 0 -1.9 -0.9 -2.5 -1.9 -1.2 -2.4 -1.3 -8.1 -0.1 -8.1 1.5 0 5.3 6.9 4.5 8.1 -0.4 0.8 -0.3 0.9 0.4 0.5 0.9 -0.6 5.2 5.9 5.2 7.9 0 1.3 -4.8 0.3 -5.4 -1.1z"/>
  <path d="M822.3 607.3 c-2.4 -0.3 -3.3 -0.9 -3.3 -2.3 0 -1 0.8 -2.1 1.8 -2.3 1.6 -0.4 1.6 -0.5 0 -0.6 -1 0 -1.8 -0.8 -1.8 -1.7 0 -1.4 1 -1.5 7.8 -0.9 4.2 0.4 8 0.9 8.5 1.2 1.4 0.8 0.7 3.2 -1 3.6 -1.7 0.4 -1.7 0.5 0 0.6 0.9 0 1.7 0.8 1.7 1.6 0 1.5 -5.4 1.8 -13.7 0.8z m5.5 -4 c-1 -0.2 -2.6 -0.2 -3.5 0 -1 0.3 -0.2 0.5 1.7 0.5 1.9 0 2.7 -0.2 1.8 -0.5z"/>
  <path d="M844 606.6 c0 -0.8 0.8 -1.7 1.8 -1.9 1.6 -0.4 1.6 -0.5 0 -0.6 -1.1 -0.1 -1.8 -0.9 -1.8 -2.1 0 -1.5 0.7 -2 2.8 -2 1.5 0 5.1 -0.3 8 -0.6 4.3 -0.6 5.2 -0.4 5.2 0.9 0 0.8 -0.8 1.8 -1.7 2 -1.7 0.4 -1.7 0.5 0 0.6 3.1 0.2 2 3.1 -1.2 3.1 -1.7 0 -3.3 0.5 -3.6 1 -1 1.6 -9.5 1.3 -9.5 -0.4z"/>
  <path d="M688 605.6 c0 -0.8 0.8 -1.7 1.8 -1.9 1.6 -0.4 1.5 -0.5 -0.1 -0.6 -1.2 -0.1 -1.7 -0.7 -1.5 -1.8 0.4 -2.4 8.8 -3.2 8.8 -0.9 0 0.8 -0.8 1.7 -1.7 1.9 -1.7 0.4 -1.6 0.5 0 0.6 1.2 0.1 1.7 0.7 1.5 1.9 -0.4 2.3 -8.8 3.1 -8.8 0.8z"/>
  <path d="M659.3 604.8 c-2.9 -0.5 -5.3 -1.4 -5.3 -1.9 0 -0.5 -1.3 -0.9 -3 -0.9 -2 0 -3 -0.5 -3 -1.5 0 -0.9 -0.9 -1.5 -2.5 -1.5 -1.8 0 -2.5 -0.5 -2.5 -1.9 0 -1.9 0.2 -1.9 3.5 -0.5 5.1 2.1 5.7 1.6 0.8 -0.6 -5.2 -2.3 -5.5 -4 -0.8 -4 1.9 0 3.5 0.4 3.5 0.9 0 0.4 1.5 1.1 3.3 1.5 14 2.7 21.6 6.5 16 7.9 -1.7 0.4 -1.7 0.5 0 0.6 0.9 0 1.7 0.8 1.7 1.6 0 1.7 -3.5 1.8 -11.7 0.3z"/>
  <path d="M861 603.6 c0 -0.8 0.8 -1.7 1.8 -1.9 1.6 -0.4 1.6 -0.5 0 -0.6 -2.6 -0.2 -2.2 -3.7 0.5 -4.5 5.9 -1.6 10 0 6 2.3 -1.7 1 -1.7 1 0 1.1 2.6 0 2.1 3.6 -0.5 4.4 -4.1 1.1 -7.8 0.7 -7.8 -0.8z"/>
  <path d="M808 603 c0 -0.5 -0.7 -1 -1.5 -1 -1 0 -1.5 -1.1 -1.5 -3.5 0 -3.2 0.3 -3.5 2.8 -3.5 4.7 0 7.2 1.1 7.2 3.1 0 1.1 -0.7 1.9 -1.7 1.9 -1.7 0.1 -1.7 0.1 0 1.1 2.8 1.6 2 2.9 -1.8 2.9 -1.9 0 -3.5 -0.4 -3.5 -1z"/>
  <path d="M996.2 598.8 c-0.7 -0.7 -1.2 -2 -1.2 -3 0 -1.1 -1.1 -2.3 -2.5 -2.8 -1.9 -0.7 -2.5 -1.7 -2.5 -3.9 0 -2.1 -0.6 -3 -2.2 -3.5 -2.2 -0.7 -2.2 -0.8 -0.4 -1.5 1.4 -0.5 1.6 -1 0.7 -1.5 -0.6 -0.4 -2 -0.2 -2.9 0.5 -0.9 0.7 -1.4 1 -1 0.5 0.9 -1.1 -1.6 -3.6 -3.6 -3.6 -1.9 0 -2.2 -4 -0.3 -4 0.6 -0.1 0.1 -0.9 -1.2 -2 -1.2 -1.1 -2.7 -1.7 -3.3 -1.4 -1.9 1.2 -5.8 -0.6 -5.8 -2.7 0 -1.6 0.5 -2 2.8 -1.7 1.6 0.2 2.6 0.8 2.4 1.6 -0.1 0.8 0.2 1.1 0.7 0.8 0.8 -0.6 16 14.7 21.7 21.8 3.2 4 3.9 7.6 1.4 7.6 -0.9 0 -2.1 -0.5 -2.8 -1.2z"/>
  <path d="M876 598 c0 -0.5 0.8 -1.4 1.8 -2 1.6 -1.1 1.6 -1.1 0 -0.6 -1.4 0.4 -1.8 0 -1.8 -1.9 0 -2 0.5 -2.5 2.5 -2.5 1.6 0 2.5 -0.6 2.5 -1.5 0 -0.8 0.7 -1.5 1.5 -1.5 0.8 0 1.5 -0.4 1.5 -1 0 -0.5 0.7 -1 1.5 -1 0.8 0 1.5 -0.4 1.5 -1 0 -0.5 0.7 -1 1.6 -1 1.6 0 3.8 -1.8 4.5 -3.7 0.8 -2.2 10 -11.3 11.4 -11.3 1 0 1.5 -1 1.5 -3 0 -2 0.5 -3 1.5 -3 0.9 0 1.5 -0.9 1.5 -2.5 0 -2.3 1.6 -6.2 3.1 -7.5 0.8 -0.7 3.9 -15.5 3.9 -18.5 0 -3 3.6 -3.6 4.3 -0.7 0.4 1.6 0.5 1.6 0.6 0 0 -1 0.8 -1.8 1.6 -1.8 1.7 0 2.2 5.9 0.6 7.6 -0.5 0.5 -1.1 3.8 -1.3 7.3 -0.3 4.1 -1 6.8 -2 7.5 -0.8 0.6 -1.8 2.8 -2.2 5 -0.5 2.6 -1.4 4 -2.7 4.3 -1.3 0.4 -1.9 1.4 -1.9 3.4 0 1.9 -0.5 2.9 -1.5 2.9 -1 0 -1.5 1 -1.5 2.8 0 3 -8.1 13.2 -10.6 13.2 -0.8 0 -1.4 0.7 -1.4 1.5 0 0.8 -0.9 1.5 -2 1.5 -1.1 0 -2 0.6 -2 1.4 0 0.8 -1.3 1.7 -3 2.1 -1.6 0.4 -3 1.1 -3 1.6 0 0.5 -0.7 0.9 -1.5 0.9 -0.8 0 -1.5 0.6 -1.5 1.4 0 0.8 -0.7 1.7 -1.6 2 -2.4 0.9 -7.4 0.7 -7.4 -0.4z m13.2 -8.8 c0.7 -0.7 -1.2 0.1 -4 1.9 -2.9 1.7 -5.2 3.4 -5.2 3.6 0 0.7 8.1 -4.1 9.2 -5.5z m7.3 -6.1 c-0.3 -0.3 -1.8 0.8 -3.3 2.3 l-2.7 2.9 3.2 -2.3 c1.8 -1.3 3 -2.6 2.8 -2.9z m15 -18.3 c3.6 -6.7 2.5 -5.8 -2 1.7 -1.9 3.2 -2.9 5.2 -2.2 4.6 0.8 -0.6 2.6 -3.4 4.2 -6.3z m4.9 -10.8 c0.5 -1.7 0.4 -2 -0.2 -1 -0.5 0.8 -1.3 2.6 -1.6 4 -0.5 1.7 -0.4 2 0.2 1 0.5 -0.8 1.3 -2.6 1.6 -4z m3.3 -15.7 c-0.3 -1 -0.5 -0.2 -0.5 1.7 0 1.9 0.2 2.7 0.5 1.8 0.2 -1 0.2 -2.6 0 -3.5z"/>
  <path d="M633 593.6 c0 -0.8 -1.3 -1.7 -3 -2.1 -1.6 -0.4 -3 -1.3 -3 -2.1 0 -0.8 -0.6 -1.4 -1.4 -1.4 -1.7 0 -10.6 -8.9 -10.6 -10.6 0 -0.8 -0.4 -1.4 -1 -1.4 -0.5 0 -1 -0.9 -1 -2 0 -1.1 -0.7 -2 -1.5 -2 -0.8 0 -1.5 -0.7 -1.5 -1.5 0 -0.8 -0.7 -1.5 -1.5 -1.5 -0.8 0 -1.9 -1.6 -2.5 -4 -0.6 -2.2 -1.5 -4 -2 -4 -0.6 0 -1 -1.6 -1 -3.5 0 -3.8 1.2 -4.5 3 -1.7 1.1 1.6 1.1 1.6 0.6 0 -0.4 -1.4 0 -1.8 1.8 -1.8 1.8 0 2.8 1.1 4.7 5.3 1.3 2.8 2.7 5.4 3.2 5.5 0.4 0.2 0.7 1.2 0.7 2.3 0 1 0.7 1.9 1.5 1.9 0.8 0 1.5 0.8 1.5 1.8 0.1 0.9 1.5 2.6 3.3 3.7 1.7 1.1 4.1 3.5 5.2 5.2 1.1 1.8 2.8 3.2 3.8 3.3 0.9 0 1.7 0.5 1.7 1 0 0.6 0.7 1 1.5 1 0.8 0 1.5 0.4 1.5 0.9 0 0.5 1.1 1.2 2.5 1.5 1.8 0.5 2.5 1.3 2.5 3.1 0 2.8 -0.3 2.9 -3.1 1.5 -1 -0.6 -1.9 -0.8 -1.9 -0.6 0 0.3 1.2 1.2 2.8 2 l2.7 1.5 -4.7 0.1 c-3.5 0 -4.8 -0.4 -4.8 -1.4z m-7.6 -11.4 c-2.9 -2.6 -6.9 -6.9 -9 -9.7 -5.2 -6.8 -6 -7.6 -3.8 -3.6 2 3.6 15.7 18.1 17.1 18.1 0.4 0 -1.5 -2.2 -4.3 -4.8z"/>
  <path d="M967 565 c0 -2.6 1.2 -2.5 3.6 0.3 l1.9 2.2 -2.3 -1.9 c-1.9 -1.7 -2.2 -1.7 -1.6 -0.3 0.3 1 0.1 1.7 -0.5 1.7 -0.6 0 -1.1 -0.9 -1.1 -2z"/>
  <path d="M598.9 545.3 c-2.1 -10.7 -1.6 -34 0.9 -43.6 2.2 -8 3.9 -10.7 6.7 -10.7 1.2 0 1.4 0.4 0.5 1.9 -0.5 1.1 -1 2.3 -1 2.8 0.1 0.4 0.8 -0.4 1.6 -1.9 0.8 -1.6 1.9 -2.8 2.4 -2.8 1.7 0 1.1 4.7 -1.7 12.7 -3.4 10.2 -4.3 26.4 -1.9 36.6 0.9 3.8 1.6 7.9 1.6 9.3 0 2.8 -2.6 3.3 -3.3 0.7 -0.4 -1.7 -0.5 -1.7 -0.6 0 -0.1 1 -0.9 1.7 -2 1.7 -1.5 0 -2.1 -1.3 -3.2 -6.7z m2.8 -12 c-0.3 -1 -0.5 -0.2 -0.5 1.7 0 1.9 0.2 2.7 0.5 1.8 0.2 -1 0.2 -2.6 0 -3.5z"/>
  <path d="M424 534.5 c0 -3.3 0.2 -3.5 3.5 -3.5 3.3 0 3.5 0.2 3.5 3.5 0 3.3 -0.2 3.5 -3.5 3.5 -3.3 0 -3.5 -0.2 -3.5 -3.5z"/>
  <path d="M471 522.6 c0 -3.1 0.3 -3.6 2.4 -3.6 2.2 0 2.3 -0.3 1.8 -4.5 -0.4 -4.3 -0.3 -4.5 2.1 -4.5 3.3 0 3.9 3.2 1.5 7.7 -0.9 1.7 -1.4 3.4 -1.1 3.7 0.4 0.3 0.2 0.6 -0.4 0.6 -0.6 0 -1 0.8 -0.9 1.8 0.1 1.2 -0.7 1.8 -2.6 2 -2.6 0.3 -2.8 0.1 -2.8 -3.2z"/>
  <path d="M916 520.7 c0 -7 -6 -24.7 -11 -32.2 -1.5 -2.2 -2.9 -4.8 -3.3 -5.7 -0.4 -1 -1.1 -1.8 -1.7 -1.8 -0.5 0 -1 -0.9 -1 -2 0 -1.1 -0.4 -2 -1 -2 -0.5 0 -1 -1.1 -1 -2.5 0 -1.9 -0.5 -2.5 -2.3 -2.5 -3 0 -4.7 -1.8 -4.7 -4.9 0.1 -2.3 1 -1.6 8.3 5.9 4.5 4.7 7 6.9 5.7 5 -1.3 -1.9 -5.2 -6.1 -8.5 -9.2 l-6 -5.8 3.6 0 c4.1 0 5.9 1.5 5.9 4.7 0 1.8 0.6 2.3 2.5 2.3 1.8 0 2.5 0.5 2.5 1.9 0 1.1 0.9 2.3 2 2.6 1.1 0.3 2 1.1 2 1.6 0 0.5 0.9 2 2.1 3.2 3 3.2 9 16.2 9.6 20.8 0.3 2.1 0.9 3.9 1.3 3.9 0.8 0 3 13.1 3 17.5 0 2.9 -2.6 3.4 -3.3 0.8 -0.4 -1.7 -0.5 -1.7 -0.6 0 -0.1 1 -0.9 1.7 -2.1 1.7 -1.6 0 -2 -0.7 -2 -3.3z"/>
  <path d="M79.5 512.3 c0.6 -7.5 1.4 -10.3 3.1 -10.3 1.6 0 1.7 1.2 0.8 9.9 -0.6 5 -1 6.1 -2.5 6.1 -1.6 0 -1.8 -0.7 -1.4 -5.7z"/>
  <path d="M422 513.8 c0 -3 1.3 -5.8 2.6 -5.8 0.9 0 1.4 1.2 1.4 3.5 0 2.8 -0.4 3.5 -2 3.5 -1.1 0 -2 -0.6 -2 -1.2z"/>
  <path d="M136 512.5 c0 -0.8 -0.4 -1.5 -1 -1.5 -0.5 0 -1 -1.6 -1 -3.5 0 -2.6 0.4 -3.5 1.8 -3.6 1 0 1.2 -0.3 0.5 -0.6 -0.7 -0.2 -1.3 -2 -1.3 -3.9 0 -3.1 0.3 -3.4 3 -3.4 l3 0 -0.5 6.3 c-0.7 8.9 -1.5 11.7 -3.1 11.7 -0.8 0 -1.4 -0.7 -1.4 -1.5z"/>
  <path d="M341.3 510.5 c-0.7 -0.8 -1.3 -3 -1.3 -5 0 -3.2 0.2 -3.5 3 -3.5 2.6 0 3 0.4 3 2.8 0 6.4 -2 8.8 -4.7 5.7z"/>
  <path d="M476.7 502.3 c-0.4 -0.3 -0.7 -2.6 -0.7 -5 0 -3 0.4 -4.3 1.4 -4.3 0.8 0 1.7 -0.6 1.9 -1.2 0.3 -0.7 0.6 -0.1 0.6 1.5 0.1 1.5 0.6 2.7 1.1 2.7 0.6 0 1 0.9 1 2 0 1.1 -0.4 2 -1 2 -0.5 0 -1 0.7 -1 1.5 0 1.5 -2.1 2.1 -3.3 0.8z"/>
  <path d="M752.7 502.3 c-0.4 -0.3 -0.7 -1.5 -0.7 -2.5 0 -1 -0.6 -1.8 -1.4 -1.8 -1.7 0 -2.6 -2.2 -2.6 -6.1 0 -2.2 -0.5 -2.9 -2 -2.9 -1.4 0 -2.1 -0.9 -2.6 -3.5 -0.9 -4.8 0 -6.5 3.5 -6.5 3.1 0 4.1 1.8 4.1 7.3 0 2 0.5 2.7 2 2.7 1.5 0 2.2 0.8 2.6 2.9 0.4 1.7 1.4 3.1 2.5 3.4 1.7 0.4 1.9 -0.1 1.9 -3.9 0 -3.2 0.4 -4.4 1.5 -4.4 0.9 0 1.5 -0.9 1.5 -2.5 0 -1.4 0.5 -2.5 1 -2.5 0.6 0 1 -0.6 1 -1.4 0 -0.8 0.9 -1.8 2 -2.1 1.1 -0.3 2 -1.5 2 -2.6 0 -1 0.7 -1.9 1.5 -1.9 0.8 0 1.5 -0.4 1.5 -1 0 -0.5 1.1 -1 2.5 -1 2.5 0 2.5 0.2 -2.2 5.9 -4.8 6 -15.2 22.7 -13.3 21.6 0.5 -0.3 1 0.3 1 1.4 0 1.7 -0.6 2.1 -3.3 2.1 -1.9 0 -3.7 -0.3 -4 -0.7z m-1.1 -11.5 c-1.9 -3.5 -4.5 -7.4 -5.7 -8.8 l-2.1 -2.5 1.6 2.5 c0.8 1.4 3.2 5.5 5.3 9.2 2.1 3.7 3.9 6.5 4.1 6.3 0.3 -0.2 -1.2 -3.2 -3.2 -6.7z"/>
  <path d="M81 499.8 c0 -3 1.3 -5.8 2.6 -5.8 0.9 0 1.4 1.2 1.4 3.5 0 2.8 -0.4 3.5 -2 3.5 -1.1 0 -2 -0.6 -2 -1.2z"/>
  <path d="M762 495.3 c0 -1.3 9.7 -15.6 13.4 -19.8 l3.5 -4 0.1 3.8 c0 2 -0.5 3.7 -1.1 3.7 -1.5 0 -3.9 2.6 -3.9 4.4 0 0.8 -0.9 1.8 -2 2.1 -1.3 0.4 -2 1.5 -2 3.1 0 1.5 -0.6 2.4 -1.5 2.4 -0.9 0 -1.5 0.9 -1.5 2.5 0 2 -0.5 2.5 -2.5 2.5 -1.4 0 -2.5 -0.3 -2.5 -0.7z"/>
  <path d="M212.6 494.1 c-0.3 -0.4 -1 -2 -1.5 -3.5 -1 -2.4 -0.8 -2.6 1.4 -2.6 2.2 0 2.5 0.4 2.5 3.5 0 3.3 -1.2 4.6 -2.4 2.6z"/>
  <path d="M82.6 488.3 c0.2 -2.1 0.9 -7.7 1.5 -12.5 0.6 -4.8 0.8 -9.1 0.5 -9.6 -0.8 -1.4 1.7 -6.2 3.3 -6.2 1.5 0 1.3 5 -1.1 23.3 -0.9 7.3 -1.4 8.7 -2.9 8.7 -1.4 0 -1.7 -0.7 -1.3 -3.7z"/>
  <path d="M419.5 489 c-0.4 -1.2 -1.1 -1.7 -1.8 -1.4 -0.7 0.4 -0.9 0.4 -0.5 -0.1 0.4 -0.4 0.3 -1.4 -0.3 -2.2 -0.9 -1 -0.6 -1.3 1.5 -1.3 2.3 0 2.6 0.4 2.6 3.5 0 3.9 -0.6 4.5 -1.5 1.5z"/>
  <path d="M609 484.7 c0 -2.6 0.4 -3.7 1.5 -3.7 1 0 1.5 -1 1.5 -2.9 0 -3.7 4.1 -8.1 7.6 -8.1 2.7 0 2.7 0 0.8 2.3 -1.7 2 -1.6 2 0.9 -0.2 l2.7 -2.4 0 3.4 c-0.1 3.7 -3.8 8.9 -6.5 8.9 -1 0 -1.5 1 -1.5 3 0 2.5 -0.4 3 -2.5 3 -3.1 0 -3.1 -0.6 0 -5.3 1.4 -2 2.3 -3.7 2 -3.7 -0.3 0 -1.9 2.1 -3.5 4.7 l-3 4.7 0 -3.7z"/>
  <path d="M288.7 482.9 c-0.3 -1.2 0 -2.8 0.9 -3.6 0.8 -0.8 1.2 -1.9 0.8 -2.4 -1 -1.6 0.7 -6.9 2.2 -6.9 1.6 0 1.7 1.9 0.8 9.8 -0.5 4 -1.1 5.2 -2.4 5.2 -1 0 -2 -1 -2.3 -2.1z"/>
  <path d="M732.6 473.9 c-1.9 -1.6 -3.8 -3.9 -4.1 -5 -0.4 -1 -1.5 -1.9 -2.5 -1.9 -1 0 -2 -0.7 -2.4 -1.5 -0.3 -0.8 -1.2 -1.5 -2.1 -1.5 -0.8 0 -1.5 -0.4 -1.5 -0.9 0 -0.5 -1.1 -1.2 -2.5 -1.5 -1.4 -0.4 -2.5 -1.2 -2.5 -1.9 0 -1.2 -20.5 -8.2 -26 -8.9 -2.9 -0.4 -3.9 -3.4 -1.3 -4.1 1.7 -0.4 1.7 -0.5 0.1 -0.6 -1 0 -1.8 -0.8 -1.8 -1.6 0 -1.1 1.2 -1.5 5 -1.5 2.8 0 5 0.4 5 0.9 0 0.6 2.1 1.3 4.8 1.6 6.3 0.8 18.2 5.5 18.2 7.2 0 0.7 1.1 1.3 2.5 1.3 1.4 0 2.5 0.5 2.5 1 0 0.6 0.7 1 1.5 1 0.8 0 1.5 0.5 1.5 1 0 0.6 0.6 1 1.4 1 0.8 0 1.8 0.9 2.1 2 0.3 1.1 1.4 2 2.4 2 0.9 0 3.6 1.9 5.9 4.3 3.3 3.3 4.2 5 4.2 7.7 l0 3.3 -2.7 -2.4 c-2.5 -2.2 -2.6 -2.2 -0.9 -0.1 1.9 2.2 1.9 2.2 -0.7 2.2 -1.5 0 -4.1 -1.3 -6.1 -3.1z m-1.6 -8.4 c-0.7 -0.9 -2.7 -2.5 -4.4 -3.7 -2.3 -1.5 -2.1 -1.1 0.9 1.6 4.3 3.8 5.5 4.5 3.5 2.1z m-11 -8 c0 -0.6 -5.6 -3.5 -6.7 -3.5 -0.4 0.1 0.8 0.9 2.7 2 3.9 2.2 4 2.2 4 1.5z m-18.5 -8.5 c-1.1 -0.5 -2.7 -0.9 -3.5 -0.9 -0.9 0 -0.8 0.4 0.5 0.9 1.1 0.5 2.7 0.9 3.5 0.9 0.9 0 0.8 -0.4 -0.5 -0.9z"/>
  <path d="M140.7 473.3 c-0.4 -0.3 -0.7 -2.2 -0.7 -4 0 -3.4 0 -3.4 4.2 -3.1 3.3 0.2 4.4 0.8 4.6 2.2 0.3 1.5 0 1.8 -1.7 1.3 -1.2 -0.3 -1.9 -0.1 -1.5 0.4 0.3 0.5 0 0.9 -0.5 0.9 -0.6 0 -1.1 0.7 -1.1 1.5 0 1.5 -2.1 2.1 -3.3 0.8z"/>
  <path d="M402.6 473.3 c-0.8 -0.8 -1.3 -0.9 -4.1 -1.2 -0.8 0 -1.5 -0.8 -1.5 -1.6 0 -1 1.1 -1.5 3.5 -1.5 3.1 0 3.5 0.3 3.5 2.5 0 2.7 -0.2 2.9 -1.4 1.8z"/>
  <path d="M180.8 470.3 c-1 -0.2 -1.8 -1.3 -1.8 -2.4 0 -1.5 0.7 -1.9 3.5 -1.9 3.1 0 3.5 0.3 3.5 2.5 0 2.5 -1.1 2.9 -5.2 1.8z"/>
  <path d="M473 467.5 c0 -1.9 0.3 -3.5 0.8 -3.5 1.4 0 2.8 1.5 2.7 3 -0.1 0.8 0.3 2.1 0.8 2.8 0.7 0.9 0.3 1.2 -1.7 1.2 -2.3 0 -2.6 -0.4 -2.6 -3.5z"/>
  <path d="M785 465.8 c4.4 -4 2.9 -3.5 -1.8 0.7 l-2.4 2 0.4 -3 c0.2 -2.2 0.9 -3.1 2.6 -3.3 1.4 -0.2 2.2 -1 2.2 -2.2 0 -1.2 1 -2.1 3 -2.5 1.7 -0.4 3 -1.2 3 -1.9 0 -0.6 2.1 -1.8 4.8 -2.6 2.6 -0.7 5.4 -2.2 6.3 -3.2 0.9 -1 2.8 -1.8 4.2 -1.8 1.4 0 2.7 -0.4 2.9 -1 0.4 -1.2 12.8 -4 18.1 -4 3.9 0 5.4 2.4 2 3.3 -1.7 0.4 -1.6 0.5 0 0.6 1.2 0.1 1.7 0.7 1.5 1.8 -0.2 1.3 -1.7 2 -5.2 2.5 -5.8 0.8 -20.6 5.8 -22.4 7.5 -0.7 0.6 -2.8 1.7 -4.7 2.4 -1.9 0.7 -3.5 1.7 -3.5 2.1 0 0.4 -0.7 0.8 -1.5 0.8 -0.8 0 -1.5 0.5 -1.5 1 0 0.6 -0.8 1 -1.9 1 -1 0 -2.1 0.9 -2.4 2 -0.4 1.6 -1.3 2 -4.4 2 l-3.8 -0.1 4.5 -4.1z m21.6 -13.6 c-0.5 -0.4 -10.6 4.6 -10.6 5.3 0 0.3 2.5 -0.7 5.5 -2.2 3 -1.5 5.3 -2.9 5.1 -3.1z"/>
  <path d="M625.4 468.1 c1.2 -1.8 11.8 -9.5 17.8 -12.7 3.5 -1.8 5.9 -3.4 5.5 -3.4 -1.8 0 -11 5.3 -17.1 10 -5.8 4.4 -6.6 4.8 -6.6 3 0 -3.5 1.8 -5.8 4.9 -6.5 1.7 -0.4 3.3 -1.5 3.6 -2.6 0.5 -1.4 1.6 -1.9 4.1 -1.9 2.7 0 3.4 -0.4 3.4 -2 0 -1.5 0.7 -2 2.6 -2 1.5 0 3.2 -0.7 3.8 -1.5 1.3 -1.7 15.3 -5.5 20.3 -5.5 3.6 0 4.7 2.5 1.6 3.3 -1.7 0.4 -1.7 0.5 0 0.6 1 0.1 1.7 0.9 1.7 2.1 0 1.4 -0.7 2 -2.4 2 -1.3 0 -5.3 0.9 -8.8 2 -3.4 1.1 -7.5 2 -9 2 -1.6 0 -2.8 0.5 -2.8 1 0 0.6 -1.1 1 -2.5 1 -1.8 0 -2.5 0.5 -2.5 2 0 1.1 -0.7 2 -1.5 2 -0.8 0 -1.5 0.5 -1.5 1 0 0.6 -0.7 1 -1.5 1 -0.8 0 -1.5 0.5 -1.5 1 0 0.6 -0.7 1 -1.5 1 -0.8 0 -2 0.9 -2.7 2 -0.9 1.3 -2.4 2 -4.6 2 -1.8 0 -3.1 -0.4 -2.8 -0.9z"/>
  <path d="M291.3 462 c0.1 -3.3 0.6 -6 1 -6 0.5 0 0.8 -1.7 0.6 -3.7 -0.3 -4.9 0.9 -9.3 2.7 -9.3 1.7 0 1.7 1.9 0.3 15 -1 8.5 -1.4 10 -3 10 -1.5 0 -1.7 -0.8 -1.6 -6z"/>
  <path d="M257.5 462 c-0.3 -1.1 -1.1 -2 -1.6 -2 -0.5 0 -0.9 -0.5 -0.9 -1.1 0 -1.3 -5.4 -8.2 -9.2 -12 -2.6 -2.4 -3.8 -6.9 -2 -6.9 1.5 0 6.7 4.9 6.7 6.2 0 0.7 0.5 1.3 1 1.4 2 0.2 4.5 1.6 4 2.4 -0.3 0.4 0.2 1 1 1.4 0.8 0.3 1.5 1 1.5 1.6 0 0.6 -0.6 0.8 -1.2 0.5 -0.7 -0.4 0 0.4 1.5 1.8 1.5 1.3 2.9 3.3 3 4.5 0.1 1.2 0.5 2.2 0.9 2.2 0.4 0 0.8 0.5 0.8 1 0 1.9 -4.8 1.1 -5.5 -1z"/>
  <path d="M878.9 462.3 c-0.6 -1.2 -15.6 -7.9 -21.8 -9.7 -3 -0.9 -6.7 -1.6 -8.3 -1.6 -2.1 0 -2.8 -0.5 -2.8 -1.9 0 -1.1 0.8 -2.2 1.8 -2.4 1.6 -0.4 1.6 -0.5 0 -0.6 -3.2 -0.2 -2.1 -3.1 1.1 -3.1 4.5 0 17.6 2.9 17.9 4 0.2 0.6 1.5 1 2.8 1 2.9 0 9 3 12.1 5.9 1.2 1.2 3.2 2.1 4.3 2.1 1.8 0 2.1 0.5 1.8 3.3 -0.3 3 -0.6 3.2 -4.4 3.5 -2.3 0.2 -4.4 -0.1 -4.5 -0.5z m6.2 -2.2 c-3.1 -2.3 -9 -5.7 -7.6 -4.4 1.3 1.4 8.8 6.3 9.5 6.3 0.3 0 -0.6 -0.9 -1.9 -1.9z"/>
  <path d="M465 452 c0 -2.5 -0.4 -3 -2.5 -3 -2 0 -2.5 -0.5 -2.5 -2.6 0 -2.1 0.3 -2.4 1.3 -1.5 0.8 0.6 1.8 0.7 2.2 0.3 0.5 -0.4 0.5 -0.2 0.1 0.5 -0.3 0.6 0.2 1.8 1.2 2.5 1.1 0.7 2.1 1.8 2.3 2.3 0.2 0.6 0.7 0.9 1 0.8 0.4 -0.1 0.9 0.7 1.2 1.7 0.4 1.6 0 2 -1.9 2 -2 0 -2.4 -0.5 -2.4 -3z"/>
  <path d="M86.8 450.3 c-0.5 -2.4 1.4 -6.3 3 -6.3 2.1 0 1.1 7.4 -1 7.8 -0.9 0.2 -1.8 -0.4 -2 -1.5z"/>
  <path d="M87.8 441.4 c-0.3 -0.3 -0.1 -2.1 0.5 -4 1.5 -4.8 3.7 -4.5 3.7 0.6 0 3.2 -0.4 4 -1.8 4 -1 0 -2.1 -0.3 -2.4 -0.6z"/>
  <path d="M236.4 438.5 c-0.4 -0.8 -1.2 -1.5 -2 -1.5 -0.8 0 -1.4 -1 -1.4 -2.3 0 -3.4 0.9 -3.8 3.3 -1.6 1.1 1 2.7 1.9 3.5 1.9 0.8 0 1.2 0.6 0.8 1.5 -0.3 0.8 -0.1 1.5 0.4 1.5 0.6 0 1 0.5 1 1 0 1.6 -5 1.2 -5.6 -0.5z"/>
  <path d="M226 432.2 c0 -0.4 -1.5 -1.2 -3.2 -1.8 -1.8 -0.7 -6.6 -2.3 -10.5 -3.8 -4 -1.4 -9.6 -2.8 -12.3 -3.2 -4 -0.5 -5 -1 -4.8 -2.3 0.4 -2 7.4 -2.3 10.3 -0.4 2.5 1.6 3.8 1.7 2.9 0.1 -0.4 -0.8 -0.3 -1 0.2 -0.5 0.5 0.5 1 1.3 1 1.8 0.1 0.5 0.2 1.2 0.3 1.5 0 0.4 0.8 0.1 1.6 -0.6 1 -0.8 1.5 -0.9 1.5 -0.1 0 0.6 1 1 2.3 1 3.3 -0.1 4.9 0.4 9 2.9 2.1 1.2 4.3 2.2 4.8 2.2 0.6 0 0.7 0.5 0.4 1 -0.3 0.6 0.1 1 1 1 0.9 0 1.3 0.5 1 1 -0.7 1.2 -5.5 1.4 -5.5 0.2z"/>
  <path d="M436.8 431.3 c-2.1 -0.3 -2.8 -1 -2.8 -2.8 0 -1.8 0.4 -2.2 2 -1.8 1.1 0.3 2.6 1.3 3.3 2.3 0.7 0.9 1.9 1.9 2.7 2.3 1.7 0.6 -0.9 0.6 -5.2 0z"/>
  <path d="M296 425.8 c0 -3.9 1.2 -6.8 2.6 -6.8 1 0 1.4 1.3 1.4 4.5 0 3.8 -0.3 4.5 -2 4.5 -1.4 0 -2 -0.7 -2 -2.2z"/>
  <path d="M418 423 c0 -2.2 2 -2.6 5.1 -1 3 1.6 2.3 3 -1.6 3 -2.8 0 -3.5 -0.4 -3.5 -2z"/>
  <path d="M702.5 371 c1.6 -1.8 1.6 -2 0.2 -2 -1 0 -1.7 -0.8 -1.7 -2 0 -1.6 0.7 -2 3.5 -2 3.7 0 5 2.5 1.8 3.3 -1.7 0.4 -1.7 0.5 0 0.6 1 0.1 1.7 0.9 1.7 2.1 0 1.6 -0.7 2 -3.7 2 -3.5 0 -3.6 0 -1.8 -2z"/>
  <path d="M710.2 366.5 c-0.1 -3.4 0 -3.5 3.3 -3.5 1.9 0 3.5 -0.4 3.5 -0.9 0 -0.5 5.3 -1.9 11.8 -3.2 9.9 -2 14.9 -2.3 32.7 -2.4 25.7 0 41.5 1.7 41.5 4.6 0 1.1 -0.6 1.9 -1.2 1.9 -0.9 0 -0.8 0.3 0.2 1 3 1.9 -0.2 2.2 -12.4 1 -17.2 -1.5 -39 -1.3 -51.6 0.6 -5.8 0.8 -12.6 1.8 -15.2 2.1 -2.7 0.2 -4.8 0.9 -4.8 1.4 0 0.5 -1.7 0.9 -3.8 0.9 -3.7 0 -3.9 -0.1 -4 -3.5z"/>
  <path d="M808.3 368.9 c-2.9 -0.8 -3.3 -1.4 -3.3 -4.4 0 -3.2 0.3 -3.5 2.9 -3.5 1.6 0 5.2 0.5 8 1.2 3.8 0.8 5.1 1.6 5.1 2.9 0 1 -0.8 2 -1.7 2.2 -1.7 0.4 -1.7 0.5 0 0.6 0.9 0 1.7 0.6 1.7 1.1 0 1.2 -8.3 1.2 -12.7 -0.1z"/>
  <path d="M826.8 369.2 c-1 -0.2 -1.8 -1 -1.8 -1.8 0 -1.7 3 -5.4 4.5 -5.4 1.2 0 11.3 -9.5 13.8 -13 6.4 -9.1 6.9 -10.2 5.7 -12.5 -0.7 -1.3 -2.8 -3.1 -4.6 -4.1 -1.9 -1 -3.4 -2.2 -3.4 -2.5 0 -0.4 -1.7 -0.9 -3.7 -1.2 -2.1 -0.2 -7.6 -1.1 -12.1 -1.8 l-8.4 -1.3 0.7 -5.6 c0.7 -5.4 2.7 -9 5 -9 0.7 0 1.6 -1.1 1.9 -2.5 0.5 -2.1 1.2 -2.5 4.2 -2.5 l3.6 0 -2.7 3.3 c-6.2 7.3 -9.6 10.7 -10.7 10.7 -0.8 0.1 -0.6 0.6 0.4 1.4 1 0.7 5 1.6 9 1.9 8.7 0.7 14.7 2.5 12.6 3.8 -0.8 0.5 0 0.8 2.2 0.7 6.7 -0.2 12.6 5.2 11.4 10.6 -1 4.9 -4.3 10.8 -5.6 10 -0.7 -0.4 -0.8 -0.3 -0.4 0.4 0.4 0.6 -1 3 -3 5.2 -2.8 3.1 -3.9 3.8 -4.7 2.8 -0.7 -1 -0.8 -0.9 -0.4 0.3 0.4 1.1 -1.1 3.2 -4.1 6.1 -6.1 5.7 -7.3 6.5 -9.4 6z"/>
  <path d="M695.6 364.4 c-1.2 -3.2 -0.6 -5.4 1.4 -5.4 1.6 0 2 0.7 2 3.5 0 3.7 -2.2 4.9 -3.4 1.9z"/>
  <path d="M695 354.9 c0 -4.4 2.1 -12 3.1 -11.3 0.5 0.3 0.6 -0.2 0.3 -1 -1.2 -3 7.9 -24.2 9.8 -23 0.7 0.5 0.8 0.2 0.4 -0.5 -1.5 -2.3 15.5 -25.8 17.6 -24.4 0.7 0.3 0.8 0.1 0.4 -0.6 -1.2 -1.9 13.6 -15.3 25.1 -22.7 8.2 -5.2 17.3 -9.5 18.5 -8.8 0.6 0.4 0.8 0.3 0.5 -0.3 -0.7 -1.1 11.8 -5.6 20.3 -7.3 8.2 -1.6 24.9 -2.4 23 -1.1 -1 0.7 -1.1 1.1 -0.2 1.1 0.6 0 1.2 0.4 1.2 0.9 0 0.4 -3.9 1.1 -8.7 1.3 -8.6 0.5 -26.3 4.1 -29.3 5.9 -5.8 3.4 -19.6 9.9 -21.1 9.9 -1.1 0 -1.9 0.7 -1.9 1.5 0 0.8 -0.7 1.5 -1.5 1.5 -0.8 0 -1.5 0.4 -1.5 0.8 0 0.9 -13.6 12.2 -14.8 12.2 -0.4 0 -1.2 1 -1.7 2.3 -0.6 1.2 -2 2.6 -3.2 3.2 -1.3 0.5 -2.3 1.5 -2.3 2.2 0 0.7 -0.9 1.3 -2 1.3 -1.3 0 -2 0.7 -2 1.9 0 2.7 -7.2 12.1 -9.2 12.1 -1.2 0 -1.8 0.8 -1.8 2.5 0 2.8 -2 7.5 -3.2 7.5 -0.4 0 -0.8 0.7 -0.8 1.5 0 0.9 -0.7 1.8 -1.5 2.1 -0.8 0.4 -1.5 1.4 -1.5 2.4 0 2.9 -1.1 5 -2.6 5 -0.9 0 -1.4 1.1 -1.4 2.8 0 1.5 -0.9 6 -2 10.1 -1.1 4.1 -2 8.5 -2 9.8 0 1.6 -0.6 2.3 -2 2.3 -1.6 0 -2 -0.7 -2 -3.1z"/>
  <path d="M832.2 300.5 c-0.2 -2.6 0.1 -3.5 1.3 -3.5 0.8 0 1.5 -0.9 1.5 -1.9 0 -2.9 1.1 -5.1 2.4 -5.1 1.8 0 3.9 -9.5 3.8 -16.7 -0.1 -4.9 0.2 -6.3 1.3 -6.3 0.8 0 1.9 1.7 2.6 4.2 0.9 3.4 0.8 5.5 -0.4 10.4 -1.8 7.2 -7.4 17.7 -8.9 16.7 -0.7 -0.3 -0.8 -0.1 -0.4 0.5 0.6 1.1 -1.3 5.2 -2.4 5.2 -0.3 0 -0.7 -1.6 -0.8 -3.5z"/>
  <path d="M836.4 264.6 c-0.3 -0.8 -1.6 -1.7 -3 -2 -1.3 -0.4 -2.4 -1.1 -2.4 -1.6 0 -0.6 -0.7 -1 -1.7 -1 -2.2 0 -12.3 -3.3 -12.3 -4.1 0 -0.3 1.5 -0.4 3.3 -0.3 2.9 0.3 3 0.3 0.7 -0.5 l-2.5 -0.9 2.8 -0.1 c1.5 -0.1 2.7 0.4 2.7 1 0 0.6 0.7 0.9 1.5 0.5 2.1 -0.7 7.6 1.4 6.8 2.7 -0.3 0.6 -0.1 0.7 0.6 0.3 0.6 -0.4 1.9 0.1 2.9 1.1 0.9 1.1 1.3 1.2 0.7 0.4 -0.9 -1.4 -0.7 -1.4 1.4 0 1.4 0.8 3.1 2.5 3.9 3.7 1.4 2.1 1.3 2.2 -1.7 2.2 -1.8 0 -3.4 -0.6 -3.7 -1.4z"/>
 </g>
 <g fill="#003f74">
  <path d="M983.8 691.4 c-0.4 -0.3 -0.4 -1.3 -0.1 -2.2 0.4 -1.5 0.3 -1.6 -0.9 -0.1 -1.2 1.5 -4.3 1.5 -3.4 0 0.3 -0.4 -0.4 -0.7 -1.4 -0.7 -1 0 -1.6 0.4 -1.4 0.8 0.3 0.4 -2.2 -0.2 -5.5 -1.4 -3.3 -1.2 -5.8 -2.5 -5.5 -3 0.3 -0.4 -0.2 -0.8 -1 -0.8 -0.8 0 -1.8 -0.5 -2.2 -1.1 -0.5 -0.8 1.3 -1 6.2 -0.7 4 0.2 6.9 0.9 7.2 1.6 0.2 0.7 2.2 1.2 4.4 1.2 4.3 0 7.1 2 6.6 4.7 -0.3 1.8 -2 2.7 -3 1.7z"/>
  <path d="M944.3 673.6 c0.1 -0.5 -0.7 -1.2 -1.8 -1.4 -2.8 -0.6 -7.6 -4.2 -7 -5.2 0.5 -0.8 -2.3 -3.6 -3.4 -3.4 -1.2 0.3 -3 -0.8 -3.5 -2.2 -0.4 -1 0.4 -1.4 3 -1.4 2.7 0 3.7 0.5 4.1 1.9 0.3 1.1 1.5 2.2 2.7 2.5 2.7 0.7 6.6 3.9 6.6 5.5 0 0.6 0.7 1.1 1.5 1.1 0.8 0 1.5 0.9 1.5 1.9 0 1.3 -0.6 1.9 -1.9 1.8 -1.1 0 -1.9 -0.6 -1.8 -1.1z"/>
  <path d="M927 649.5 c0 -2.4 0.5 -3.5 1.5 -3.5 0.9 0 1.5 -0.9 1.5 -2.5 0 -2 0.5 -2.5 2.5 -2.5 1.4 0 2.5 0.3 2.5 0.6 0 1.2 -6.5 11.4 -7.2 11.4 -0.5 0 -0.8 -1.6 -0.8 -3.5z"/>
  <path d="M933.1 647.3 c1.8 -3.2 3.4 -6 3.6 -6.2 0.1 -0.2 0.3 1.2 0.3 3.2 0 2.6 -0.4 3.7 -1.5 3.7 -0.9 0 -1.5 0.9 -1.5 2.5 0 1.9 -0.5 2.5 -2.1 2.5 -1.9 0 -1.9 -0.3 1.2 -5.7z"/>
  <path d="M1017.2 635 c-1.6 -2.7 -1.6 -9.3 0.1 -8.7 0.6 0.2 1.1 1.1 1.1 2 -0.1 0.9 0.2 1.4 0.7 1.1 0.8 -0.4 3.9 5.2 3.9 7.1 0 1.4 -4.7 0.2 -5.8 -1.5z"/>
  <path d="M1008 617.1 c-0.5 -1.1 -1 -2.9 -1 -4 0 -1.2 -0.5 -2.1 -1.1 -2.1 -1.7 0 -3.9 -2.7 -3.9 -4.8 0 -1.1 -0.7 -2.2 -1.5 -2.6 -0.8 -0.3 -1.5 -1.7 -1.5 -3.2 0 -2.1 0.3 -2.4 1.3 -1.5 0.8 0.6 1.6 0.9 1.9 0.6 0.8 -0.8 5.9 7.3 6.1 9.6 0.1 1 0.7 2.1 1.5 2.4 0.7 0.3 1 1 0.6 1.6 -0.4 0.8 -0.3 0.9 0.4 0.5 1 -0.6 3.2 2.9 3.2 5 0 1.4 -5.1 0.1 -6 -1.5z"/>
  <path d="M824 606.1 c0 -2 0.3 -2.1 5.8 -1.5 8.7 1 8.7 2 -0.1 3 -5.4 0.6 -5.7 0.6 -5.7 -1.5z"/>
  <path d="M844.8 607.3 c-4.8 -0.7 -3.1 -2 3.5 -2.7 3.4 -0.3 7.6 -1.1 9.2 -1.6 3.3 -1.1 2.8 -1 -10.2 0.6 l-5.3 0.6 0 -3.1 c0 -3 0.1 -3.1 4.4 -3.1 2.6 0 5.1 0.6 6 1.5 2 2 2.6 1.9 2.6 -0.5 0 -1.7 0.7 -2 4.4 -2 5.1 0 7.1 2.4 3.3 4 l-2.2 0.9 2.3 0 c1.6 0.1 2.2 0.7 2.2 2.2 0 2 -0.4 2.1 -5 1.7 -3.8 -0.4 -5 -0.2 -5 0.8 0 1.4 -3.9 1.6 -10.2 0.7z"/>
  <path d="M667.3 606.3 c-3.5 -0.3 -4.3 -0.8 -4.3 -2.4 0 -1.8 0.5 -1.9 5.3 -1.5 l5.2 0.5 -5 -1 c-5.8 -1.2 -5.7 -1.1 -4.9 -3.3 0.7 -1.8 7.4 -2.3 7.4 -0.6 0 0.6 1.6 1 3.5 1 2.8 0 3.5 0.4 3.5 1.9 0 1.1 -0.8 2.2 -1.7 2.4 -1.7 0.4 -1.7 0.5 0 0.6 0.9 0 1.7 0.8 1.7 1.6 0 1.5 -1.2 1.6 -10.7 0.8z"/>
  <path d="M688.3 606.3 c-4.2 -0.8 -2.3 -2.1 4.2 -2.8 5.7 -0.6 13.1 -2.2 11.3 -2.4 -0.4 -0.1 -4.1 0.4 -8.3 1 -9.5 1.3 -11.5 0.7 -11.5 -3.2 0 -1.7 -0.5 -5 -1.1 -7.5 -1 -3.7 -1.5 -4.4 -3.5 -4.4 -1.3 0 -2.4 -0.5 -2.4 -1.1 0 -1.7 -2.7 -3.9 -4.7 -3.8 -1 0 -1.3 0.3 -0.5 0.6 0.6 0.2 1.2 2 1.2 3.9 0 3.4 -0.1 3.4 -4.5 3.4 l-4.4 0 0 -8 c0 -4.4 0.4 -8 1 -8 0.5 0 0.9 -0.9 0.9 -2 0 -1.3 -0.7 -2 -1.9 -2 -1.3 0 -2 -1 -2.5 -3.1 -1.1 -5.8 -0.8 -7.9 1.4 -7.9 1.1 0 2 -0.7 2 -1.5 0 -0.8 -0.4 -1.5 -1 -1.5 -0.5 0 -1 -1.2 -1 -2.6 0 -1.7 0.4 -2.4 1.3 -2 0.6 0.2 3.1 1 5.5 1.7 2.3 0.6 4.2 1.5 4.2 1.9 0 2.4 -1.5 4 -3.6 4 -1.3 0 -2.4 0.5 -2.4 1 0 0.6 0.6 1 1.4 1 0.8 0 1.7 0.6 1.9 1.3 0.4 1 0.6 1 0.6 0 0.1 -0.8 1.4 -1.3 3.1 -1.3 2.8 0 3 -0.3 3 -3.5 0 -3.4 0.1 -3.5 4.3 -3.5 4.4 0 10.7 -2.5 15.8 -6.1 l2.9 -2 0 6.5 0 6.6 6.9 0 c7.7 0 8.1 0.4 8.1 7.1 0 2.5 -0.5 4.2 -1.4 4.5 -1.9 0.7 -2.8 3 -3.5 8.9 -0.5 4.5 -0.9 5 -3.2 5.3 -2.4 0.3 -2.5 0.5 -1.9 4.5 0.4 2.3 1.1 5 1.5 6 0.5 1.1 0.1 2.4 -0.9 3.6 -1.2 1.3 -1.4 2.1 -0.7 2.6 5.1 3.1 -7.9 6.7 -17.6 4.8z m5.7 -47.3 c0 -0.6 -1.6 -0.8 -4.2 -0.4 -5.9 0.9 -6 1.4 -0.5 1.4 2.6 0 4.7 -0.5 4.7 -1z"/>
  <path d="M814 603.9 c0 -1.9 0.4 -2.1 3.8 -1.4 4.3 0.8 4.6 1 3.7 2.4 -0.3 0.6 -2.2 1.1 -4.1 1.1 -2.8 0 -3.4 -0.4 -3.4 -2.1z"/>
  <path d="M828.3 603.3 c-4.3 -0.4 -6.1 -2.3 -2.3 -2.3 1.1 0 2 -0.7 2 -1.5 0 -1.1 1.1 -1.5 4 -1.5 3.8 0 4 0.2 4 3 0 2.3 -0.4 3 -1.7 2.8 -1 -0.1 -3.7 -0.3 -6 -0.5z"/>
  <path d="M419 600.9 c-0.7 -1.1 -0.9 -2.4 -0.5 -2.7 0.7 -0.7 3.5 2.5 3.5 4 0 1.6 -1.9 0.8 -3 -1.3z"/>
  <path d="M803.3 601.8 c-3.4 -5.3 -4 -7.8 -2 -7.8 1.1 0 1.2 -1.1 0.5 -5.2 -0.5 -2.9 -1.2 -7.4 -1.5 -10 l-0.5 -4.8 4.1 0 c3.5 0 4.1 0.3 4.1 2 0 1.1 0.7 2.3 1.5 2.6 0.8 0.4 1.5 1.5 1.5 2.5 0 1 0.5 1.9 1 1.9 1.5 0 1.2 6.8 -0.2 7.3 -0.7 0.2 0.4 1 2.5 1.7 2.4 0.9 3.7 2 3.7 3.2 0 1.1 0.7 1.8 2 1.8 1.5 0 2 0.7 2 2.5 0 3 -1 3.1 -8.5 0.5 -3.2 -1.1 -6.1 -1.8 -6.4 -1.5 -0.3 0.3 0.5 0.8 1.7 1.2 1.2 0.3 2.2 1.2 2.2 1.9 0 1.8 -6.6 1.9 -7.7 0.2z"/>
  <path d="M872 600 c0 -0.5 0.8 -1.4 1.8 -2 1.6 -1.1 1.6 -1.1 0 -0.6 -1.4 0.4 -1.8 0 -1.8 -1.9 0 -2.2 0.4 -2.5 3.5 -2.5 3.9 0 4.3 0.6 1.8 2.6 -1.7 1.3 -1.7 1.4 0 0.8 1.3 -0.5 1.7 -0.1 1.7 2 0 2.3 -0.4 2.6 -3.5 2.6 -1.9 0 -3.5 -0.4 -3.5 -1z"/>
  <path d="M415.7 596.3 c-1 -1 -0.8 -3.3 0.3 -3.3 0.5 0 1.4 0.9 2 2 0.8 1.5 0.8 2 -0.3 2 -0.8 0 -1.7 -0.3 -2 -0.7z"/>
  <path d="M950 591.5 c0 -2.8 0.4 -3.5 2 -3.5 2.1 0 2.4 1 1.4 4.8 -1 3.6 -3.4 2.7 -3.4 -1.3z"/>
  <path d="M954.4 592.8 c0.3 -1.3 0.6 -2.9 0.6 -3.5 0 -0.7 0.5 -1.3 1 -1.3 0.6 0 1 1.6 1 3.5 0 2.6 -0.4 3.5 -1.6 3.5 -1.2 0 -1.5 -0.6 -1 -2.2z"/>
  <path d="M181 592 c0 -0.5 0.7 -1 1.5 -1 0.8 0 1.5 0.5 1.5 1 0 0.6 -0.7 1 -1.5 1 -0.8 0 -1.5 -0.4 -1.5 -1z"/>
  <path d="M342 592 c0 -0.5 1.4 -1 3 -1 1.7 0 3 0.5 3 1 0 0.6 -1.3 1 -3 1 -1.6 0 -3 -0.4 -3 -1z"/>
  <path d="M349 592 c0 -0.5 0.7 -1 1.5 -1 0.8 0 1.5 0.5 1.5 1 0 0.6 -0.7 1 -1.5 1 -0.8 0 -1.5 -0.4 -1.5 -1z"/>
  <path d="M987.8 588.9 c-2.4 -2.5 -2.3 -4.5 0.2 -5.2 2.2 -0.6 3.4 0.6 4.9 4.6 1 2.4 0.8 2.7 -1.2 2.6 -1.2 0 -3 -0.9 -3.9 -2z"/>
  <path d="M978 577.5 c0 -0.9 -0.9 -1.5 -2.1 -1.5 -1.2 0 -2.3 -0.8 -2.6 -2 -0.3 -1.1 -0.9 -2 -1.4 -2 -0.5 0 -0.9 -0.9 -0.9 -1.9 0 -1.4 0.6 -1.9 2 -1.8 1.1 0.1 2 0.7 2 1.5 0 0.7 0.4 1.1 0.8 0.8 0.5 -0.3 2.8 1.5 5.1 3.9 l4.3 4.5 -3.6 0 c-2.5 0 -3.6 -0.4 -3.6 -1.5z"/>
  <path d="M230.1 574 c-0.8 -0.4 -1 -1.3 -0.7 -1.9 0.4 -0.6 1.1 -0.9 1.5 -0.6 0.5 0.2 1.6 -0.4 2.6 -1.5 1.8 -2 4.5 -2.7 4.5 -1.2 0 0.9 -3.6 4.4 -5.5 5.5 -0.6 0.3 -1.7 0.2 -2.4 -0.3z"/>
  <path d="M435.2 573.2 c-1 -0.3 -1 -0.7 -0.1 -1.8 1.2 -1.5 4.9 -2 4.9 -0.6 0 1.2 -3.4 2.9 -4.8 2.4z"/>
  <path d="M906.7 571.3 c-0.4 -0.3 -0.7 -1.9 -0.7 -3.5 0 -2.1 0.5 -2.8 2 -2.8 1.6 0 2 -0.7 2 -3.5 0 -2.8 0.4 -3.5 2 -3.5 1.8 0 1.7 0.5 -1.6 6.8 -1.9 3.7 -2.8 5.8 -1.9 4.7 0.9 -1.1 2.8 -4.1 4.1 -6.7 2.9 -5.7 4.4 -6.1 4.4 -1.3 0 2.8 -0.4 3.5 -2 3.5 -1.6 0 -2 0.7 -2 3.5 0 3.2 -0.3 3.5 -2.8 3.5 -1.6 0 -3.2 -0.3 -3.5 -0.7z"/>
  <path d="M954 565.5 c0 -2.8 0.4 -3.5 2 -3.5 2.1 0 2.4 1 1.4 4.8 -1 3.6 -3.4 2.7 -3.4 -1.3z"/>
  <path d="M958.5 566.8 c0.4 -1.1 0.7 -3.9 0.8 -6.2 0 -2.3 0.2 -3.3 0.4 -2.3 0.3 0.9 1.4 1.7 2.6 1.7 1.2 0.1 3.4 1.1 5 2.3 2.5 2.1 2.6 2.5 1.3 4.2 -1.4 2 -1.5 2 -4.5 -0.3 l-3.1 -2.3 0 2.6 c0 1.6 -0.6 2.5 -1.6 2.5 -1.1 0 -1.4 -0.6 -0.9 -2.2z"/>
  <path d="M442.6 567.1 c-0.3 -0.4 0.2 -1.5 1.2 -2.4 4.9 -4.6 5.8 -5.5 7.2 -7.6 0.8 -1.3 1.4 -2.7 1.3 -3.2 -0.2 -0.5 0.3 -0.9 1.1 -0.9 0.7 0 2.1 -1.1 3 -2.5 1.6 -2.4 1.6 -2.5 -0.8 -2.5 -1.3 0 -2.7 0.6 -2.9 1.3 -0.4 1 -0.6 1 -0.6 0 -0.1 -1.9 -5.1 -1.6 -5.1 0.2 0 1.3 -0.4 1.4 -2 0.5 -1 -0.6 -1.7 -1.7 -1.4 -2.4 0.3 -0.8 0.1 -1.7 -0.5 -2.1 -0.6 -0.3 -1.1 0.2 -1.1 1.2 0 1.2 -0.3 1.4 -0.8 0.6 -1.1 -1.7 -6.2 -2.8 -6.2 -1.3 0 2.1 -2.9 4.2 -5 3.5 -1.1 -0.3 -2 -1.1 -2 -1.6 0 -0.6 -0.7 -1.7 -1.5 -2.6 -0.8 -0.8 -1.3 -1.9 -1 -2.4 0.4 -0.5 -0.1 -0.9 -1.1 -0.9 -1.4 0 -1.5 0.7 -1 3.9 0.5 3.5 0.4 3.9 -1.3 3.4 -1.2 -0.3 -1.7 -1.1 -1.4 -2.2 0.3 -1.3 -0.1 -1.8 -1.8 -1.7 -1.6 0.1 -2.4 -0.5 -2.7 -1.9 -0.8 -4.9 -2.5 -7.5 -4.8 -7.5 -1.7 0 -2.4 0.6 -2.4 1.9 0 1 -0.7 2.4 -1.5 3.1 -1.1 0.9 -1.5 1 -1.5 0.1 0 -0.8 -0.8 -1 -1.9 -0.6 -1.1 0.3 -2.8 0.8 -3.9 1 -1.1 0.2 -3.6 0.8 -5.6 1.3 -2.1 0.6 -3.6 0.7 -3.6 0.1 0 -0.5 0.8 -0.9 1.8 -0.9 3.4 0 16.2 -6.9 19.4 -10.6 4.5 -5 6.9 -8.9 7.1 -11.3 0 -1.1 0.4 -1.8 0.7 -1.6 1.7 1.1 3.7 -13.4 2.7 -20 -0.9 -6.1 -6.4 -15.9 -10.9 -19.3 -0.9 -0.7 -2.3 -1.8 -3 -2.5 -2.5 -2.3 -8.3 -4.6 -14.8 -5.7 -5.2 -0.9 -31.9 -1.6 -41.6 -1.1 -1.8 0.1 -2.2 1.1 -3.3 7.9 -0.6 4.2 -1.3 9.7 -1.6 12.2 -0.3 2.5 -0.6 5.7 -0.8 7.3 -0.2 1.5 -0.4 3.8 -0.5 5.2 -0.1 1.5 -0.8 2.5 -1.7 2.5 -0.8 0 -1.5 0.5 -1.5 1 0 0.6 0.5 1 1.1 1 0.8 0 1 1.8 0.6 5.8 -0.4 3.1 -0.6 6.5 -0.7 7.5 0 0.9 -0.7 1.7 -1.5 1.7 -0.8 0 -1.5 0.5 -1.5 1 0 0.6 0.5 1 1 1 0.6 0 1 1.6 1 3.5 0 2.7 -0.4 3.5 -1.7 3.5 -1.4 0 -1.5 0.2 -0.5 0.9 1.8 1.1 1.2 7.3 -0.8 7.8 -1.3 0.4 -1.3 0.3 0 -0.6 1.2 -0.9 1.2 -1.1 0.1 -1.1 -1.1 0 -1.3 -1.7 -0.7 -9.2 0.4 -5.8 0.3 -8.8 -0.3 -7.9 -0.5 0.8 -0.7 2 -0.4 2.8 0.3 0.7 -0.6 2.4 -2.1 3.6 -1.8 1.5 -2.4 2.8 -2 4.3 0.7 2.7 -2 3.9 -4.1 1.8 -0.8 -0.8 -1.9 -1.2 -2.5 -0.9 -1.8 1.1 -1.1 3.5 1.3 4.5 1.8 0.9 1.7 0.9 -1 0.4 -3.9 -0.7 -6.2 0.4 -4.2 1.8 1 0.7 0.5 0.8 -1.4 0.4 -2.2 -0.5 -2.9 -0.2 -3.7 1.6 -0.5 1.3 -0.9 1.9 -0.9 1.5 -0.1 -0.4 -1 -0.3 -2.1 0.3 -1.7 0.9 -2 0.8 -2.1 -1.2 -0.1 -1.6 -0.3 -1.8 -0.6 -0.6 -0.4 1.7 -3.3 3.4 -3.3 1.9 0 -0.9 -0.2 -0.9 -8.5 -1.4 -5.1 -0.3 -6 -0.6 -6.1 -2.3 -0.1 -3.2 -1.5 -5.3 -3.1 -4.7 -1 0.4 -1.3 1.5 -1.1 3.4 0.3 1.6 0.1 2.9 -0.4 2.9 -0.4 0 -0.8 -0.9 -0.8 -2.1 0 -1.1 -0.5 -2.9 -1 -4 -0.6 -1.1 -0.7 -1.9 -0.1 -1.9 1.9 0 1.9 -3.1 -0.1 -4.9 -1.6 -1.5 -1.9 -2.7 -1.5 -5.1 0.4 -1.7 0.2 -3 -0.3 -3 -0.6 0 -1 0.8 -1.1 1.8 0 0.9 -0.2 3 -0.3 4.5 -0.1 1.5 0.3 3.2 1 3.8 1.4 1.1 0.7 5.8 -1.2 7.9 -0.7 0.9 -2 5.4 -2.8 10 -2 11.1 -1.5 3.7 1.4 -20 1.2 -9.6 2.2 -20.4 2.3 -24 0.1 -3.6 0.5 -6.7 0.8 -7 0.3 -0.3 1.1 -4.5 1.8 -9.5 0.7 -4.9 1.4 -10.3 1.6 -12 0.2 -1.6 0.6 -5.2 0.9 -8 0.4 -4.3 3.3 -28.8 5.2 -44 l0.6 -5 57.1 0.2 c35.8 0.2 57.4 0.6 58 1.2 0.7 0.7 1.6 0.7 2.9 0 1.2 -0.6 1.8 -0.6 1.8 0.1 0 0.5 0.8 1 1.8 1 0.9 0 3 0.7 4.6 1.5 1.5 0.8 3.6 1.5 4.5 1.5 2.3 0 11.8 4.6 12.2 5.9 0.2 0.6 1.3 1.2 2.4 1.4 1.1 0.2 3 0.8 4.1 1.5 1.2 0.6 2.4 0.9 2.7 0.6 0.3 -0.3 0.8 0.4 1.2 1.6 0.4 1.3 1.2 1.9 2 1.6 0.8 -0.3 1.7 0.3 2 1.2 0.4 0.9 3.3 4.1 6.6 7 3.2 2.8 5.6 5.2 5.2 5.2 -0.4 0 0.3 0.9 1.5 2.1 1.2 1.1 2 2.5 1.6 3 -0.3 0.5 0 0.8 0.6 0.7 0.7 -0.2 1.4 0.8 1.6 2.2 0.3 1.4 0.9 2.7 1.4 2.8 0.6 0.2 0.8 0.8 0.5 1.2 -0.3 0.5 0.4 1.5 1.5 2.3 1.1 0.7 1.7 1.7 1.4 2 -0.4 0.3 -0.3 1.4 0.1 2.4 0.5 1 0.9 2 1 2.3 1.9 6.3 2.5 10.2 2.4 16.7 0 4.3 0 11.7 0.1 16.6 0.1 5.1 -0.2 8.7 -0.8 8.7 -0.6 0 -0.8 0.9 -0.5 2 0.3 1.1 0.2 2.8 -0.2 3.7 -0.5 1 -0.7 2.1 -0.7 2.6 0.1 0.4 -0.8 0.8 -2 0.8 -1.8 0.1 -1.9 0.2 -0.5 0.6 1.3 0.3 1.6 1 1.1 2.6 -0.4 1.2 -1.2 2.5 -1.8 2.9 -0.6 0.4 -0.7 0.8 -0.3 0.8 0.5 0 -0.8 3 -2.7 6.7 -1.9 3.6 -3.3 7 -3 7.5 0.3 0.5 0.1 0.7 -0.4 0.6 -0.5 -0.2 -2.5 1.7 -4.3 4.2 -2.1 2.6 -4.5 4.6 -5.9 4.8 -1.8 0.3 -2 0.6 -0.9 1.3 1.1 0.7 -0.2 2.3 -5.5 7.4 -7 6.5 -8 7.2 -9 5.6z m15.4 -24.2 c0 -0.9 -0.4 -0.8 -1.5 0.1 -0.8 0.7 -1.5 1.9 -1.5 2.7 0 1.2 0.2 1.2 1.5 -0.1 0.8 -0.8 1.5 -2 1.5 -2.7z"/>
  <path d="M956 557.5 c0 -1.9 0.4 -3.5 0.9 -3.5 0.5 0 0.9 1.6 0.9 3.5 0 1.9 -0.4 3.5 -0.9 3.5 -0.5 0 -0.9 -1.6 -0.9 -3.5z"/>
  <path d="M247.2 558.3 c-1 -0.4 -0.9 -0.9 0.4 -2.4 1.7 -1.9 4.4 -2.6 4.4 -1.1 0 1.5 -3.4 4 -4.8 3.5z"/>
  <path d="M815.6 554.8 c-0.3 -1.3 -0.6 -3.3 -0.6 -4.6 l0 -2.2 3.8 2.4 c2 1.4 4.9 2.8 6.5 3.1 1.5 0.4 2.7 1.3 2.7 2.1 0 1 -1.5 1.4 -5.9 1.4 -5.2 0 -5.9 -0.2 -6.5 -2.2z"/>
  <path d="M252.6 551.1 c-0.4 -0.5 1.4 -5 3.9 -10 3.9 -7.9 4.4 -9.4 3.3 -11.1 -1.5 -2.4 -2.4 -2.5 -3.2 -0.5 -0.3 0.8 0.2 2.1 1 3 1.4 1.3 1.3 1.5 -0.8 1.5 -1.3 0 -1.8 0.3 -1.2 0.8 0.9 0.5 0.8 1.1 -0.2 2 -0.9 0.8 -1.4 0.9 -1.4 0.2 0 -0.6 -0.4 -0.9 -0.9 -0.5 -0.5 0.3 -1.1 -0.2 -1.3 -1 -0.3 -1.4 -0.6 -1.4 -2.1 -0.3 -1 0.8 -1.9 2 -2 2.8 -0.5 2.8 -1.8 4 -4.8 4 -1.8 0 -3.3 0.7 -4.1 2 -0.7 1.1 -2.3 2 -3.5 2 -1.3 0 -2.3 0.5 -2.3 1.1 0 0.6 -0.8 0.3 -1.7 -0.7 -1.6 -1.5 -1.7 -1.5 -2.4 0.2 -0.7 1.7 -0.8 1.7 -0.8 -0.3 -0.1 -2.7 -0.9 -2.9 -2.6 -0.7 -1 1.4 -1.3 1.4 -2.6 0.2 -0.8 -0.7 -3.2 -1.5 -5.4 -1.7 -2.2 -0.1 -4.1 -0.7 -4.3 -1.2 -0.2 -0.5 -1.4 -0.9 -2.6 -0.9 -1.2 0 -2.8 -0.8 -3.5 -1.9 -1.2 -1.6 -1.8 -1.7 -4.5 -0.7 -1.7 0.6 -3.9 1.9 -4.8 3 -1.5 1.5 -2 1.6 -3.3 0.6 -0.8 -0.7 -1.5 -0.9 -1.5 -0.4 0 0.5 -0.4 0.3 -0.9 -0.5 -0.7 -1 -1.3 -1.1 -3 -0.1 -1.2 0.6 -2.7 1 -3.3 0.8 -0.6 -0.2 2.4 -2.1 6.5 -4.1 7.4 -3.7 15.7 -11.2 15.7 -14.3 0 -0.8 0.4 -1.4 0.8 -1.4 1.6 0 5.8 -16.2 5.3 -20.5 -0.6 -5.4 -1.1 -7.6 -2.6 -11.2 -1 -2.5 -2.2 -4 -2.8 -3.6 -0.6 0.3 -0.7 0.1 -0.3 -0.5 1 -1.7 -7.1 -10 -12.4 -12.7 -2.5 -1.2 -6.4 -2.6 -8.7 -3 -2.4 -0.4 -4.3 -1 -4.3 -1.3 0 -0.4 -8.9 -0.7 -19.8 -0.7 l-19.7 0 -0.2 7 c-0.3 10.4 -2.2 20.8 -4.1 22.3 -1.4 1.1 -1.4 1.2 0.2 1.2 1.2 0 1.6 0.5 1.2 1.6 -0.3 0.9 -0.6 2.4 -0.6 3.4 0 1 -0.8 2.1 -1.7 2.3 -1.7 0.4 -1.7 0.5 -0.1 0.6 1.3 0.1 1.6 0.8 1.3 2.9 -0.2 1.5 -0.7 4.8 -1 7.5 -0.4 3.1 -1.1 4.7 -2.1 4.7 -0.8 0 -1.4 0.5 -1.4 1 0 0.6 0.5 1 1 1 1.8 0 1.1 6.8 -0.7 7.9 -1 0.6 -1.2 1.1 -0.5 1.1 1.9 0 1.5 6 -0.4 6 -1.4 0 -1.6 -1 -1.2 -6.9 0.4 -5.6 0.3 -6.7 -0.7 -5.7 -0.7 0.7 -1.5 2.4 -1.8 3.7 -0.4 2.2 -0.4 2.2 -0.6 -0.4 -0.1 -2.5 -0.3 -2.7 -1.6 -1.3 -0.8 0.8 -1.5 2.4 -1.5 3.5 0 3.3 -4 2.4 -5.3 -1.1 -1.3 -3.7 -2.7 -1.7 -2.3 3.3 0.3 4.1 0.1 4.9 -1.1 4.5 -0.8 -0.3 -1.7 -0.6 -1.9 -0.6 -0.2 0 -0.4 -0.5 -0.4 -1.1 0 -0.6 -0.7 -1.7 -1.5 -2.5 -1.9 -2 -5.5 -0.9 -5.5 1.7 0 1.5 0.7 1.9 3.2 1.9 4.6 0 3 0.8 -2.7 1.3 -2.8 0.3 -6 0.8 -7.2 1.2 -2.5 0.8 -3 -0.4 -1.3 -3.5 0.9 -1.7 0.6 -2.1 -1.6 -2.6 -2.8 -0.7 -4 0 -4.7 3.1 -0.3 1.3 -0.5 1 -0.6 -1.1 -0.1 -4.2 -4.5 -6.3 -5.4 -2.6 -0.3 0.9 -0.5 0.2 -0.6 -1.5 -0.1 -2.2 -0.6 -3.3 -1.6 -3.3 -0.8 0 -1.5 0.5 -1.5 1.2 0 0.6 -0.8 0.1 -1.9 -1 -2.9 -3.4 -3.8 -2.7 -4.6 3.4 -0.4 3.1 -0.9 5.3 -1.2 5 -0.3 -0.2 0 -4.4 0.7 -9.3 0.7 -4.8 1.2 -9.5 1.2 -10.3 0 -0.8 0.7 -6.7 1.5 -13 0.8 -6.3 1.6 -12.8 1.8 -14.5 0.1 -1.6 1.5 -13.3 2.9 -25.9 1.5 -12.6 2.5 -23.5 2.2 -24.2 -0.3 -0.7 -0.1 -1.6 0.3 -1.9 0.5 -0.2 1.2 -4.5 1.6 -9.5 0.4 -5 1.1 -9.3 1.6 -9.6 0.5 -0.3 0.7 -0.8 0.5 -1.2 -0.5 -0.9 99 -0.5 106.4 0.3 3 0.4 7.1 1.4 9 2.2 1.9 0.9 5.1 1.7 7 2 3.8 0.4 14.1 4.8 15 6.3 0.3 0.5 1.7 1.1 3 1.2 1.3 0.2 4.4 2.1 6.9 4.3 7.3 6.5 17.1 16.4 17.1 17.2 0 0.4 1.1 2.1 2.5 3.7 1.4 1.6 2.5 3.5 2.5 4.3 0 0.7 0.4 1.3 0.8 1.3 1.3 0 3.3 5 2.6 6.2 -0.5 0.7 -0.2 0.8 0.6 0.3 1 -0.6 1.2 -0.4 0.7 0.8 -0.3 1 -0.2 1.7 0.3 1.7 0.8 0 2.8 5.7 3.7 10.5 0.8 4.9 1.7 29.3 1.1 28.8 -0.5 -0.2 -0.8 0.8 -0.8 2.2 0 3.4 -2 11.7 -3.1 13 -0.5 0.5 -0.9 1.9 -0.9 3 0 1.2 -0.3 2.5 -0.7 2.9 -0.5 0.4 -0.8 1.1 -0.8 1.5 0 0.5 -1.3 3.5 -2.9 6.8 -2.4 5.1 -3.2 6 -5 5.6 -1.6 -0.4 -1.8 -0.3 -0.7 0.5 1.2 0.9 1.3 1.5 0.3 3.6 -1.2 2.7 -2.6 3.3 -3.6 1.7z"/>
  <path d="M221.6 549.5 c-0.9 -2.3 -0.8 -2.5 0.9 -2.5 1.7 0 1.9 0.9 0.6 2.8 -0.7 1.1 -1 1 -1.5 -0.3z"/>
  <path d="M307.2 548.8 c-1.7 -1.7 -1.5 -4.8 0.3 -4.8 1 0 1.5 1 1.5 3 0 3.4 -0.1 3.5 -1.8 1.8z"/>
  <path d="M171.8 544.3 c1.2 -0.2 3 -0.2 4 0 0.9 0.3 -0.1 0.5 -2.3 0.4 -2.2 0 -3 -0.2 -1.7 -0.4z"/>
  <path d="M178 543.6 c0 -0.2 1.3 -0.6 2.9 -0.8 1.7 -0.2 2.8 -0.1 2.5 0.4 -0.5 0.8 -5.4 1.2 -5.4 0.4z"/>
  <path d="M84.7 539.3 c-1.2 -1.1 -0.8 -2.3 0.7 -2.3 0.8 0 1.6 0.7 2 1.5 0.5 1.5 -1.4 2.1 -2.7 0.8z"/>
  <path d="M597.2 525 c0 -7.7 0.3 -9 1.7 -9 1.4 0 1.6 1.3 1.6 9 0 7.7 -0.2 9 -1.6 9 -1.4 0 -1.7 -1.3 -1.7 -9z"/>
  <path d="M601.8 528.8 c-0.7 -10.7 1.1 -17.2 2.6 -9.6 0.8 3.8 -0.3 14.8 -1.4 14.8 -0.5 0 -1 -2.4 -1.2 -5.2z"/>
  <path d="M754 501.5 c0 -0.8 -0.9 -1.5 -2 -1.5 -1.6 0 -2 -0.7 -2 -3.5 0 -1.9 0.5 -3.5 1 -3.5 0.6 0 1 0.3 1 0.8 0 0.4 1.1 2.1 2.5 3.7 l2.5 3 -2.1 -3.7 -2.1 -3.8 2.1 0 c1.2 0 2.1 0.6 2.1 1.5 0 0.8 0.6 1.5 1.4 1.5 1.5 0 2.6 2.1 2.6 5.1 0 1.5 -0.7 1.9 -3.5 1.9 -2.4 0 -3.5 -0.5 -3.5 -1.5z"/>
  <path d="M747 489 c0 -1.6 0.2 -3 0.5 -3 0.2 0 1.1 1.4 2 3 1.5 2.9 1.5 3 -0.5 3 -1.6 0 -2 -0.7 -2 -3z"/>
  <path d="M750.7 489.1 c-2.2 -3.8 -2.2 -4.1 0.8 -4.1 2.2 0 2.5 0.4 2.5 3.5 0 4.3 -1 4.4 -3.3 0.6z"/>
  <path d="M609 482.5 c0 -1.9 0.5 -3.5 1 -3.5 0.6 0 1 -0.7 1 -1.6 0 -1.1 0.8 -1.4 3.3 -1.2 2.8 0.3 3.2 0.7 3.5 3.6 0.2 1.8 -0.1 3.2 -0.7 3.2 -0.6 0 -1.1 0.7 -1.1 1.5 0 0.8 -0.9 1.5 -2 1.5 -1.8 0 -1.9 -0.3 -0.9 -2.2 0.6 -1.3 1.8 -3.1 2.7 -4.1 0.8 -0.9 1.3 -2 1 -2.3 -0.3 -0.2 -1.9 1.6 -3.4 4.1 -1.6 2.5 -3.2 4.5 -3.6 4.5 -0.5 0 -0.8 -1.6 -0.8 -3.5z"/>
  <path d="M741.2 479.8 c0.3 -2.9 0.7 -3.3 3.6 -3.6 3.1 -0.3 3.2 -0.2 3.2 3.5 l-0.1 3.8 -2.9 -3.5 c-1.7 -1.9 -3 -2.9 -3 -2.3 0 0.6 0.7 1.6 1.5 2.3 2.1 1.7 1.9 3 -0.6 3 -1.7 0 -2 -0.5 -1.7 -3.2z"/>
  <path d="M898 475.3 c0 -2.5 0 -2.6 2 -0.8 1.1 1 2 2.2 2 2.7 0 0.4 -0.9 0.8 -2 0.8 -1.5 0 -2 -0.7 -2 -2.7z"/>
  <path d="M901.8 475 l-2.8 -3.5 2.6 -0.3 c3.3 -0.4 3.6 -0.1 3.2 3.9 l-0.3 3.4 -2.7 -3.5z"/>
  <path d="M889 466.3 l0 -2.6 2.5 2.3 c1.4 1.3 2.5 2.5 2.5 2.7 0 0.2 -1.1 0.3 -2.5 0.3 -2 0 -2.5 -0.5 -2.5 -2.7z"/>
  <path d="M727 466 c0 -1.1 0.4 -2 0.8 -2 0.5 0 1.7 0.9 2.7 2 1.8 2 1.7 2 -0.8 2 -2 0 -2.7 -0.5 -2.7 -2z"/>
  <path d="M892 465 l-3.5 -2.9 3.8 -0.1 c3.5 0 3.7 0.2 3.7 3 0 1.7 -0.1 3 -0.3 3 -0.1 0 -1.8 -1.3 -3.7 -3z"/>
  <path d="M730 464 l-3.5 -2.9 3.8 -0.1 c3.5 0 3.7 0.2 3.7 3 0 1.7 -0.1 3 -0.3 3 -0.1 0 -1.8 -1.3 -3.7 -3z"/>
  <path d="M631.7 462.3 c-0.4 -0.3 -0.7 -1.9 -0.7 -3.5 0 -2.6 0.3 -2.8 3.8 -2.8 l3.7 0.1 -3.5 2.9 c-3.7 3.2 -3.4 4 0.5 1.4 2.4 -1.6 2.5 -1.5 2.5 0.5 0 1.6 -0.6 2.1 -2.8 2.1 -1.6 0 -3.2 -0.3 -3.5 -0.7z"/>
  <path d="M646 454 c3.8 -2.1 3.6 -2.6 -0.4 -1 -2.4 0.9 -2.6 0.7 -2.6 -1.5 0 -2.2 0.4 -2.5 3.5 -2.5 3.3 0 3.5 0.2 3.5 3.5 0 3.4 -0.1 3.5 -3.7 3.5 l-3.8 -0.1 3.5 -1.9z"/>
  <path d="M697 450.5 c0 -1.2 0.7 -1.4 2.8 -0.9 4.4 1.1 5 2.4 0.9 2.4 -2.6 0 -3.7 -0.4 -3.7 -1.5z"/>
  <path d="M698.8 448.3 c-3.3 -0.8 -2 -3.3 1.7 -3.3 2.8 0 3.5 0.4 3.5 2 0 2 -1.4 2.3 -5.2 1.3z"/>
  <path d="M817.8 371.7 c-2.7 -0.8 -3.8 -1.6 -3.8 -3 0 -1.7 0.5 -1.8 3.8 -1.4 l3.7 0.5 -3.7 -1.1 c-5.8 -1.6 -4.5 -2.7 3.2 -2.7 6.8 0 7 0.1 7 2.5 0 1.6 -0.6 2.5 -1.6 2.5 -1.4 0 -1.4 0.1 0 1.6 0.9 0.8 1.6 1.7 1.6 2 0 0.7 -6.4 0.2 -10.2 -0.9z"/>
  <path d="M709 369.5 c0 -0.8 0.6 -1.5 1.3 -1.5 0.9 0 0.8 -0.3 -0.2 -0.9 -0.9 -0.6 -1.1 -1.8 -0.7 -3.5 0.6 -2.5 1 -2.7 4.9 -2.4 4.4 0.3 6.6 3.2 3 4.1 -1.7 0.4 -1.7 0.5 0 0.6 2.5 0.2 2.1 3.7 -0.5 4.5 -4.2 1.1 -7.8 0.7 -7.8 -0.9z"/>
  <path d="M697.6 367 c-1 -1.1 -2.1 -3.7 -2.3 -6 -0.4 -3.5 -0.2 -4 1.6 -4 1.4 0 2.1 0.6 2.1 2 0 1.1 0.9 2.9 2 4 2.5 2.5 2.7 6 0.3 5.9 -1 0 -2.6 -0.9 -3.7 -1.9z"/>
  <path d="M801.5 367.5 c-2.7 -0.7 -6.5 -1.4 -8.2 -1.4 -2.6 -0.1 -3.3 -0.5 -3.3 -2 0 -1.2 0.8 -2.1 2.3 -2.4 l2.2 -0.4 -2.2 -0.2 c-2.5 -0.1 -2.8 -0.8 -1.4 -3 0.7 -1 2.3 -1.2 7 -0.6 3.3 0.4 6.1 1.1 6.1 1.6 0 0.5 0.9 0.9 2 0.9 3 0 7 2.2 7 3.8 0 1 -0.8 1.3 -2.7 0.9 l-2.8 -0.6 2.8 1.2 c1.5 0.6 2.7 1.7 2.7 2.4 0 1.6 -4.7 1.5 -11.5 -0.2z"/>
  <path d="M736 363.1 c0 -0.9 8.1 -2.1 9 -1.4 0.2 0.2 -0.2 0.8 -1 1.3 -1.9 1.2 -8 1.3 -8 0.1z"/>
  <path d="M771.8 361.3 c1.2 -0.2 3.2 -0.2 4.5 0 1.2 0.2 0.2 0.4 -2.3 0.4 -2.5 0 -3.5 -0.2 -2.2 -0.4z"/>
  <path d="M736 358.6 c0 -2.4 0.3 -2.6 4.5 -2.6 3.8 0 4.5 0.3 4.5 2 0 1.1 -0.6 2 -1.4 2 -0.7 0 -2.8 0.3 -4.5 0.6 -2.8 0.6 -3.1 0.4 -3.1 -2z"/>
  <path d="M773.3 359.3 c-2.5 -0.3 -3.3 -0.9 -3.3 -2.4 0 -1.6 0.7 -1.9 4 -1.9 3.6 0 4 0.3 4 2.5 0 1.4 -0.3 2.4 -0.7 2.3 -0.5 0 -2.3 -0.3 -4 -0.5z"/>
  <path d="M699.5 337.3 c0.7 -2.7 2 -6.1 2.8 -7.8 0.9 -1.6 1.9 -3.7 2.2 -4.5 1.3 -3.3 3.2 -6 3.8 -5.3 0.6 0.6 1.1 -2 0.8 -3.9 0 -0.5 0.4 -0.8 0.9 -0.8 0.6 0 1 -0.6 1 -1.3 0 -0.7 1.8 -3.3 4 -5.7 l3.9 -4.5 0.1 3.8 c0 2 -0.4 3.7 -1 3.7 -0.5 0 -1 0.6 -1 1.4 0 0.7 -1.3 2.7 -3 4.4 -1.6 1.8 -3 4.1 -3 5.2 0 1.1 -0.3 2 -0.8 2 -0.4 0 -2.3 4 -4.2 9 -2.9 7.4 -3.9 9 -5.7 9 -2 0 -2.1 -0.2 -0.8 -4.7z"/>
  <path d="M830 302.6 c0 -1.9 0.5 -3.8 1 -4.1 0.6 -0.3 1 -1.7 1 -3.1 0 -1.4 0.6 -2.4 1.4 -2.4 1.5 0 2.6 -2.1 2.6 -5.1 0 -1 0.7 -1.9 1.5 -1.9 0.8 0 1.5 -0.7 1.5 -1.5 0 -0.9 0.9 -1.5 2.4 -1.5 2.3 0 2.4 0.2 1.4 3.8 -0.5 2 -1.6 4.4 -2.3 5.2 -0.8 0.8 -1.8 2.8 -2.4 4.3 -0.7 1.7 -1.5 2.5 -2.3 2.1 -0.6 -0.4 -0.8 -0.3 -0.5 0.3 0.7 1.2 -2.9 7.3 -4.3 7.3 -0.5 0 -1 -1.5 -1 -3.4z"/>
  <path d="M721.2 299.4 c1.2 -2 3 -3.9 4 -4.2 1 -0.2 1.6 -0.8 1.3 -1.2 -0.3 -0.4 0.6 -1.5 2 -2.4 2.5 -1.6 2.5 -1.6 2.5 1.3 0 1.7 -0.6 3.4 -1.3 3.8 -0.8 0.4 -2.2 2 -3.2 3.6 -1.2 1.9 -2.6 2.7 -4.6 2.7 l-2.8 0 2.1 -3.6z"/>
  <path d="M746.7 275.5 c1 -1.3 2.2 -2.5 2.7 -2.5 0.5 0 1.7 -0.6 2.5 -1.4 0.9 -0.7 2.6 -1.7 3.9 -2 1.8 -0.6 2.2 -0.4 2.2 1.6 0 2.9 -5.8 6.8 -10 6.8 l-3.1 0 1.8 -2.5z"/>
  <path d="M771.3 262.8 c0.2 -0.7 1.1 -1.2 2 -1.2 0.9 0.1 1.5 -0.3 1.4 -1 -0.1 -0.6 1 -1.1 2.6 -1.1 1.5 0.1 2.7 -0.2 2.7 -0.6 0 -0.4 0.9 -0.9 2 -1.2 1.5 -0.4 2 0 2 1.7 0 1.6 -0.9 2.4 -4 3.4 -5.2 1.6 -9.3 1.6 -8.7 0z"/>
 </g>
 <g fill="#6f3f23">
  <path d="M702.7 604 c-0.3 -1.3 0 -2 0.9 -2 0.8 0 1.7 0 2.1 -0.1 0.4 0 1 0.9 1.5 2 0.6 1.8 0.3 2.1 -1.6 2.1 -1.5 0 -2.6 -0.7 -2.9 -2z"/>
  <path d="M735.3 603.5 c-3.4 -0.8 -9.5 -2.8 -13.4 -4.5 -8.3 -3.5 -11.9 -3.8 -14.4 -1 l-1.9 2.1 -1.3 -2.3 c-0.7 -1.3 -1.2 -3.8 -1.3 -5.5 0 -2.4 -0.5 -3.3 -1.6 -3.3 -1.1 0 -1.4 -0.5 -0.9 -1.7 0.4 -1 1 -2.6 1.2 -3.5 0.3 -1.1 1.5 -1.8 2.9 -1.8 2.7 0 4.4 -2.8 2.4 -4 -2.1 -1.3 1.8 -7.7 9.2 -15 4.9 -4.9 9.2 -8 15.5 -11.1 l8.8 -4.4 15 0 15 0 7.5 3.6 c4.1 1.9 10.1 5.9 13.2 8.8 6.2 5.7 13.3 15.5 12.3 17.1 -0.4 0.6 0.1 3 1 5.4 1 2.5 1.4 5 1 5.6 -0.4 0.6 -0.2 1.6 0.3 2.3 1.4 1.8 2.3 6.3 1.4 7.1 -0.4 0.4 -0.8 1.2 -0.8 1.7 -0.1 0.5 -0.2 1.4 -0.3 1.9 0 0.6 -1.1 1 -2.4 1 -1.8 0 -2.3 -0.5 -2.3 -2.2 0.2 -3.9 -4.3 -4.6 -11.7 -1.8 -13.6 5.1 -19.7 6.3 -34.2 6.6 -9.5 0.2 -16 -0.1 -20.2 -1.1z"/>
 </g>
 <g fill="#005189">
  <path d="M989 692 c-0.8 -0.5 -2.3 -0.7 -3.2 -0.4 -1.3 0.4 -1.8 0 -1.8 -1.3 0 -1.6 -0.8 -1.9 -5.2 -2 -2.9 0 -5.4 -0.5 -5.6 -1.1 -0.2 -0.6 -1 -0.8 -1.8 -0.5 -0.8 0.3 -1.4 0 -1.4 -0.7 0 -0.6 -0.4 -0.9 -0.9 -0.6 -0.5 0.3 -2.2 -0.1 -3.7 -0.9 -1.6 -0.8 -3.6 -1.5 -4.5 -1.5 -0.9 0 -1.9 -0.7 -2.3 -1.5 -0.3 -0.8 -1.4 -1.5 -2.5 -1.5 -2.4 0 -7.1 -2 -7.1 -3 0 -0.4 -1.9 -2 -4.2 -3.6 -5.1 -3.4 -5.9 -4 -9.8 -7.6 -1.6 -1.6 -3.6 -2.8 -4.3 -2.8 -0.8 0 -1.9 -1.2 -2.6 -2.6 -1 -2.4 -0.7 -3.4 3.3 -10.3 10.4 -17.7 18 -36.6 22.5 -56.1 2.2 -9.3 5.1 -27.7 5.2 -33.1 0 -1.9 0.3 -2.8 0.6 -2.1 0.2 0.6 1.1 1.2 1.8 1.2 2.2 0 7.7 5.1 7.1 6.6 -0.4 1 0.2 1.4 1.9 1.4 2.4 0 3.7 1 6.9 5.4 1 1.4 2.4 2.6 3.1 2.6 1.6 0 6.4 3.9 4.8 4 -0.6 0 -1 0.8 -0.9 1.8 0.2 1.1 1.2 1.7 2.9 1.7 1.4 -0.1 2.3 0.3 2.1 0.7 -0.3 0.4 0 0.8 0.6 0.8 0.5 0 1.8 1.6 2.7 3.5 1 2 2.2 3.4 2.9 3.1 0.7 -0.3 1.8 0.2 2.4 1 0.7 0.8 1 1.4 0.7 1.4 -1.2 0 2.2 5.1 4.7 7.1 1.5 1.2 2.5 2.6 2.3 3.2 -0.2 0.7 0.5 2 1.4 3.1 1 1 1.6 2.3 1.3 2.8 -0.3 0.4 0 0.8 0.5 0.8 0.6 0 1.1 0.6 1.1 1.3 0 0.7 1.4 2.9 3 4.7 2.8 3.1 3.2 3.8 2.9 5.6 0 0.4 0.4 1 1 1.4 0.7 0.3 1.3 2.1 1.6 3.8 0.2 1.8 1.1 3.9 2 4.9 3.1 3 3.5 6.4 3.5 29.2 0 20.8 -0.2 22.9 -1.8 24.4 -1 1 -2.8 1.7 -4 1.7 -1.2 0 -2.2 0.6 -2.2 1.3 0 0.7 -0.8 1.7 -1.7 2.3 -2.3 1.4 -20 1.7 -20.9 0.3 -0.4 -0.7 -1 -0.7 -1.8 0 -0.7 0.6 -1.7 0.6 -2.6 0.1z"/>
  <path d="M921.2 657.5 c-0.1 -1.4 0.3 -2.5 0.8 -2.5 0.6 0 1 -0.7 1 -1.5 0 -0.8 0.5 -1.5 1 -1.5 0.6 0 1 -0.7 1 -1.5 0 -0.8 0.6 -1.5 1.3 -1.5 1.3 0 4.7 -5.4 4.7 -7.5 0 -1.7 9.2 -20.9 10.2 -21.3 0.5 -0.2 0.8 -1 0.8 -1.8 0 -0.8 1.6 -6.6 3.5 -12.9 4.1 -13.7 7.1 -28.1 8.1 -38.7 0.4 -4.3 1.1 -7.8 1.5 -7.8 0.5 0 0.9 -0.9 0.9 -2 0 -3.4 1.7 -2.2 1.8 1.3 0.3 6.1 -2.9 27.3 -5.8 38.8 -5 20.2 -11.9 36.7 -22.2 53.4 -6.3 10 -8.2 11.6 -8.6 7z"/>
  <path d="M663.3 605.8 c-3.5 -0.5 -6.3 -1.4 -6.3 -1.9 0 -0.5 -1.6 -0.9 -3.5 -0.9 -1.9 0 -3.5 -0.4 -3.5 -1 0 -0.5 -1 -1 -2.1 -1 -2.7 0 -13.9 -5 -13.9 -6.1 0 -0.5 -0.7 -0.9 -1.5 -0.9 -0.8 0 -1.5 -0.4 -1.5 -1 0 -0.5 -0.7 -1 -1.5 -1 -0.8 0 -1.5 -0.7 -1.5 -1.5 0 -0.8 -0.9 -1.5 -2 -1.5 -1.1 0 -2 -0.6 -2 -1.3 0 -1.5 -6.8 -8.2 -9.2 -9 -1 -0.4 -1.8 -1.6 -1.8 -2.7 0 -1.1 -0.7 -2 -1.5 -2 -0.8 0 -1.5 -0.7 -1.5 -1.5 0 -0.8 -0.4 -1.5 -1 -1.5 -0.5 0 -1 -1.1 -1 -2.5 0 -1.5 -0.6 -2.5 -1.4 -2.5 -1.5 0 -2.6 -2.1 -2.6 -5 0 -1 -0.4 -2 -1 -2.2 -2.6 -0.9 -7.6 -30.8 -5.1 -30.8 0.6 0 1.1 -1.3 1.1 -3 0 -1.6 -0.5 -3 -1.1 -3 -0.8 0 -1 -2.1 -0.5 -7.2 0.9 -8.7 3.5 -19.8 4.7 -19.8 0.5 0 0.9 -0.9 0.9 -2 0 -2.6 4.1 -11 5.4 -11 1.2 0 4.6 -5.5 4.6 -7.3 0 -0.7 1 -1.7 2.3 -2.2 1.2 -0.6 2.3 -2 2.5 -3.1 0.4 -2.6 3.9 -6.1 6.7 -6.6 1.1 -0.2 2.4 -1.3 3 -2.6 0.5 -1.2 1.8 -2.2 2.7 -2.2 1 0 1.8 -0.7 1.8 -1.5 0 -0.8 0.7 -1.5 1.5 -1.5 0.8 0 1.5 -0.4 1.5 -0.8 0 -1.2 4.6 -3.2 7.1 -3.2 1.1 0 2.2 -0.7 2.5 -1.5 0.8 -2 13.7 -5.8 20.1 -5.9 2.9 -0.1 5.3 -0.4 5.3 -0.8 0 -0.5 4.1 -0.8 9 -0.8 5.3 0 9 0.4 9 1 0 0.6 2.8 1 6.5 1 3.7 0 6.5 0.4 6.5 1 0 0.6 1.6 1 3.5 1 1.9 0 3.5 0.5 3.5 1 0 0.6 1.1 1 2.5 1 1.4 0 3.3 0.9 4.2 2 1 1.1 2.7 2 4 2 1.2 0 2.8 0.7 3.7 1.5 0.8 0.8 1.9 1.5 2.5 1.5 0.6 0 1.1 0.5 1.1 1 0 0.6 0.7 1 1.5 1 0.8 0 1.5 0.7 1.5 1.5 0 0.8 0.9 1.5 2 1.5 1.1 0 2 0.6 2 1.3 0 1.5 7.8 9.2 10.3 10 0.9 0.4 1.7 1.6 1.7 2.8 0 1.2 0.8 2.3 2 2.6 1.1 0.3 2 1.2 2 1.9 0 0.8 0.5 1.4 1 1.4 0.6 0 1 0.7 1 1.5 0 0.8 0.5 1.5 1 1.5 0.6 0 1 1.1 1 2.5 0 1.4 0.6 2.5 1.3 2.5 0.8 0 1.9 1 2.5 2.3 0.6 1.2 1.1 1.6 1.1 1 0.1 -0.7 0.8 -1.3 1.6 -1.3 0.8 0 1.5 -0.9 1.5 -1.9 0 -2.7 1 -5.1 2.2 -5.1 1.5 0 3.7 -3.1 3.8 -5.2 0 -0.9 1.2 -2.3 2.7 -3 1.5 -0.7 2.9 -2.2 3.1 -3.3 0.5 -2.8 3.9 -6.2 6.8 -6.9 1.4 -0.4 2.9 -1.8 3.4 -3.1 0.5 -1.4 1.6 -2.5 2.5 -2.5 0.8 0 1.5 -0.4 1.5 -1 0 -0.5 0.7 -1 1.5 -1 0.8 0 1.5 -0.4 1.5 -1 0 -0.5 0.7 -1 1.5 -1 0.8 0 1.5 -0.4 1.5 -0.8 0 -1.1 8.6 -5.2 10.9 -5.2 1.1 0 2.1 -0.4 2.3 -1 0.6 -1.9 16 -5.2 21.6 -4.6 3.2 0.4 5.2 0.2 5.2 -0.4 0 -0.5 2.5 -1 5.5 -1 3 0 5.5 0.5 5.5 1 0 0.6 2 0.8 5.3 0.4 5.5 -0.6 20.9 2.7 21.5 4.6 0.2 0.6 1.2 1 2.2 1 2.9 0 7 2.2 7 3.7 0 0.7 0.9 1.3 1.9 1.3 3 0 5.1 1.1 5.1 2.6 0 0.8 0.9 1.4 2 1.4 1.1 0 2 0.7 2 1.5 0 0.8 0.9 1.5 2 1.5 1.1 0 2 0.5 2 1.2 0 1.6 8.1 9.8 9.7 9.8 0.7 0 1.3 0.9 1.3 2 0 1.1 0.7 2 1.5 2 0.8 0 1.5 0.7 1.5 1.5 0 0.8 0.5 1.5 1 1.5 0.6 0 1 0.7 1 1.5 0 0.8 0.5 1.5 1 1.5 0.6 0 1 0.9 1 2 0 2.6 2.7 8 4 8 0.5 0 2.1 3.7 3.6 8.3 2.5 7.7 2.7 9.4 2.7 27.2 0 18 -0.1 19.4 -2.7 27.3 -1.5 4.5 -3.1 8.2 -3.5 8.2 -0.5 0 -1.1 1.4 -1.4 3 -0.4 1.8 -1.3 3 -2.2 3 -0.9 0 -1.8 1.2 -2.2 3 -0.3 1.7 -1.2 3 -1.9 3 -0.8 0 -1.4 0.9 -1.4 2 0 1.1 -0.6 2 -1.3 2 -1.6 0 -9.7 8.2 -9.7 9.8 0 0.7 -0.9 1.2 -2 1.2 -1.1 0 -2 0.7 -2 1.5 0 0.8 -0.7 1.5 -1.5 1.5 -0.8 0 -1.5 0.5 -1.5 1 0 0.6 -0.7 1 -1.5 1 -0.8 0 -1.5 0.5 -1.5 1 0 0.6 -1.1 1 -2.5 1 -1.4 0 -2.8 0.7 -3.1 1.5 -0.4 0.8 -1.5 1.5 -2.5 1.5 -1 0 -1.9 0.5 -1.9 1 0 0.6 -1.1 1 -2.4 1 -1.3 0 -2.6 0.6 -2.8 1.2 -0.3 0.8 -2.4 1.3 -5.6 1.3 -3.2 0 -5.2 0.4 -5.2 1.1 0 0.8 -6.1 1.2 -21.5 1.2 -11.8 -0.1 -21.5 -0.4 -21.5 -0.8 0 -0.4 -2.3 -1 -5.2 -1.2 -2.9 -0.3 -5.4 -1.1 -5.6 -1.7 -0.2 -0.6 -1.5 -1.1 -2.8 -1.1 -2.7 0 -3.4 -2.7 -0.9 -3.6 0.8 -0.4 1.3 -1 1 -1.4 -0.8 -1.3 0.7 -7 1.6 -6.4 0.5 0.3 0.9 1.3 0.9 2.3 0 1.1 0.9 2.1 2.2 2.4 2.9 0.8 3.6 0.1 0.9 -0.8 -1.6 -0.5 -2.1 -1.5 -2.1 -4 0 -1.8 0.6 -3.6 1.3 -3.8 0.9 -0.4 0.9 -0.6 0 -0.6 -0.7 -0.1 -1.3 -1 -1.3 -2 0 -1 -0.7 -2.1 -1.5 -2.5 -0.8 -0.3 -1.5 -1.5 -1.5 -2.6 0 -1.1 -0.4 -2 -1 -2 -1.4 0 -1.3 1.1 0.5 5.3 1.7 4.1 1.9 5.7 0.7 5.7 -0.5 0 -1.4 -1.7 -2 -3.7 -3.3 -10.8 -16 -24.4 -28.2 -30.2 -7.3 -3.5 -7.8 -3.6 -19.5 -3.6 l-12 0 -8.8 4.4 c-9.1 4.5 -21 14.9 -24.2 21.1 -1 1.9 -2 2.7 -3 2.4 -1.9 -0.8 -1.9 -1.2 0.6 -5.9 1.2 -2.2 2.1 -4.1 2 -4.2 -0.5 -1 0.1 -2.3 1 -2.3 0.5 0 0.7 0.6 0.3 1.3 -0.5 0.9 -0.4 0.9 0.6 0.1 1.4 -1.4 0.4 -5.4 -1.3 -5.4 -0.7 0 -1.9 0.4 -2.6 0.9 -0.9 0.6 -2.2 0.6 -3.3 0 -1.2 -0.7 -1.8 -0.6 -1.8 0.1 0 1.9 -3 4.2 -4.5 3.6 -0.8 -0.3 -1.5 -0.1 -1.5 0.4 0 0.6 -0.7 1 -1.5 1 -0.8 0 -1.5 -0.9 -1.5 -1.9 0 -2.7 -3.6 -3.7 -5.7 -1.6 -1.4 1.4 -1.4 2.2 -0.5 4.9 1.6 4.3 1.6 4.3 -1 4.2 -1.7 -0.1 -2.4 0.5 -2.6 2.2 -0.2 1.2 -1 2.2 -1.9 2.2 -1.1 0 -1.4 -0.6 -0.9 -2.4 0.4 -1.6 0.1 -2.6 -0.9 -3 -1 -0.4 -1.7 0.4 -2.3 2.7 -1.2 4.2 -0.5 5.9 2.2 5.2 1.1 -0.2 1.5 -0.2 0.9 0.1 -0.7 0.3 -1.3 1.2 -1.3 2 0 0.8 0.6 1.4 1.3 1.3 2.6 -0.3 3.7 0.2 3.7 1.6 0 0.8 0.4 1.5 0.9 1.5 0.5 0 1 1.6 1 3.5 0.3 6.4 0.3 6.5 3.3 6.5 1.5 0 2.8 0.5 2.8 1 0 0.6 0.9 1 2 1 1.2 0 2 0.7 2 1.6 0 1.4 -0.7 1.5 -4 1 -2.7 -0.4 -4 -0.3 -4 0.5 0 1.4 -20.3 0.5 -20.8 -0.9 -0.1 -0.5 -1.3 -0.7 -2.6 -0.5 -3.6 0.7 -20.4 -5.3 -29 -10.5 -15.8 -9.5 -28.3 -26.4 -32.6 -44.3 -2.7 -11.6 -2.8 -29.6 0 -40.4 5.5 -21.5 19.1 -38.7 39.7 -50.2 3.2 -1.8 5.2 -3.3 4.5 -3.3 -3.6 0 -16.3 8.9 -24.7 17.4 -7.3 7.3 -10 10.9 -13.8 18.3 -7 13.6 -9 22 -8.9 37.8 0 10 0.5 14.9 2.1 21 5.8 22.1 19.7 38.7 40.8 48.7 13.2 6.2 21.5 8 38.3 8.2 8 0 16.4 -0.3 18.8 -0.7 3.8 -0.8 4.2 -0.7 4.2 1.1 0 1.8 -0.7 1.9 -9.2 1.9 -5.1 0 -13.1 0.2 -17.8 0.5 -4.7 0.4 -11.3 0.2 -14.7 -0.4z m193.2 -2.3 c34.3 -7.1 58.4 -31.2 63.5 -63.5 4.8 -30.9 -9.3 -63 -35.4 -80.4 -15.2 -10.1 -25.9 -13.1 -46.6 -13.1 -17.1 0 -24 1.5 -36.5 7.7 -15 7.5 -29.7 21.6 -38 36.3 -2.6 4.7 -5.4 8.5 -6.1 8.5 -0.8 0 -2.6 -2.4 -4 -5.2 -11.8 -23.3 -32.3 -40.1 -56.2 -46.2 -9.3 -2.4 -27.7 -2.2 -37.8 0.4 -4.3 1.1 -8.3 2.5 -8.9 3.2 -0.7 0.8 -0.5 0.9 0.8 0.5 10.4 -3.7 13.8 -4.2 27.7 -4.2 13 0 15.4 0.3 23 2.7 12.8 4.1 23 10.6 33.5 21.2 5.3 5.3 10.5 11.7 12.5 15.4 8.8 15.8 9.4 16 16.2 4.7 12.5 -20.9 27.4 -33.2 49.3 -40.8 8.5 -3 9.8 -3.1 24.5 -3.2 13.5 0 16.5 0.3 23 2.3 11.5 3.6 24.4 10.8 32.2 18.1 11.7 10.8 18.7 22.2 23.4 37.8 2.2 7.4 2.7 10.8 2.7 21.3 0.1 15 -1.6 22.7 -7.6 35 -3.4 6.9 -5.8 10.2 -13.2 17.5 -4.9 5 -11.6 10.5 -14.7 12.4 -8.1 4.7 -17.7 8.4 -21.8 8.5 -1.9 0 -4.1 0.6 -4.9 1.4 -1.4 1.4 -5 1.3 -9.8 -0.3 -1.8 -0.6 -2.3 -0.3 -2.3 0.9 0 1.3 -1.1 1.6 -6 1.6 -4.7 0 -6 -0.3 -6 -1.5 0 -0.8 -0.4 -1.5 -1 -1.5 -0.5 0 -1 0.5 -1 1.1 0 1.5 -11.3 0.5 -11.8 -1 -0.2 -0.5 -0.9 -0.8 -1.6 -0.5 -0.6 0.2 -3.1 -0.2 -5.5 -1.1 -4.9 -1.7 -7 -2 -5.5 -0.7 0.9 0.9 9.9 3.6 16.9 5.1 6.5 1.4 25.4 1.2 33 -0.4z m-183.1 -25.7 c1.6 -1.7 2.8 -4.8 1.8 -4.8 -0.4 0 -1.5 0.9 -2.5 2 -2.6 3.1 -2.1 5.5 0.7 2.8z m-1.4 -6.4 c0 -0.8 -0.4 -1.4 -1 -1.4 -0.5 0 -1 0.2 -1 0.4 0 0.2 -0.3 1.2 -0.6 2 -0.5 1.2 -0.2 1.5 1 1 0.9 -0.3 1.6 -1.2 1.6 -2z m6.4 -5.9 c-2.5 -1.9 -3.4 -1.9 -3.4 0 0 1 1 1.5 2.7 1.5 2.6 0 2.6 -0.1 0.7 -1.5z m170.6 -13.4 c6.4 -3.3 13.5 -11.1 16.2 -17.9 1.8 -4.7 2.2 -7.7 2.3 -16.7 0 -10 -0.3 -11.6 -2.7 -16.8 -3 -6.5 -6.6 -11.1 -10.9 -14.3 -1.6 -1.1 -2.8 -2.3 -2.6 -2.5 0.1 -0.2 0.1 -0.3 -0.1 -0.2 -0.2 0.1 -1.9 -0.5 -3.7 -1.3 -2 -0.8 -6.8 -1.4 -11.3 -1.4 -6.8 0 -8.7 0.4 -14 3.1 -6.7 3.3 -11.9 8.6 -15.3 15.8 -1.9 3.8 -2.4 6.7 -2.7 16.6 -0.3 10.6 -0.1 12.7 1.9 17.9 3.3 9 11.3 16.9 19.9 19.7 4.9 1.6 18.1 0.4 23 -2z m-155.7 -1.1 c10.7 -5.4 16.6 -15.9 17.5 -30.7 0.5 -10.1 -0.5 -15.6 -4.5 -23.7 -3 -6 -10.2 -13 -15.1 -14.8 -5.9 -2.1 -18.8 -1.6 -24.4 0.9 -7 3.2 -14.1 10.3 -17.4 17.6 -2.7 5.7 -2.9 7.1 -2.9 17.7 0 10.5 0.2 12 2.8 17.5 3.4 7.2 5.6 9.7 12.2 14 6.5 4.2 7.3 4.4 18 4.2 7.3 -0.2 9.9 -0.7 13.8 -2.7z"/>
  <path d="M700.5 587.3 c0.4 -1 1 -2.6 1.2 -3.5 0.3 -1 1.4 -1.8 2.4 -1.8 2.3 0 2.3 0.3 0.4 4 -1.7 3.3 -5.3 4.3 -4 1.3z"/>
  <path d="M702.2 371.8 c0.3 -0.7 2.5 -2.1 4.9 -3 5.2 -2 4.6 -2.2 -1.6 -0.7 -3.9 1 -4.6 0.9 -6.5 -0.8 -3.3 -3.2 -4.2 -7.9 -2.9 -16 0.7 -4 1.6 -7.3 2.1 -7.3 0.5 0 0.7 -0.4 0.4 -0.9 -0.3 -0.5 0.2 -2.6 1.1 -4.7 0.9 -2.2 1.7 -4.3 1.9 -4.9 0.8 -4 9.9 -20.6 12.2 -22.3 0.9 -0.7 1.5 -1.4 1.2 -1.6 -0.3 -0.2 0.9 -2.3 2.6 -4.7 5.4 -7.5 21.9 -25.1 22.8 -24.2 0.2 0.2 1.3 -0.8 2.5 -2.3 1.1 -1.5 2.1 -2.4 2.1 -2 0 0.4 3.3 -1.5 7.3 -4.1 3.9 -2.7 9.5 -5.9 12.2 -7.1 2.8 -1.3 5.8 -2.8 6.8 -3.3 1 -0.5 2.2 -0.7 2.7 -0.4 0.4 0.3 1 0 1.2 -0.6 0.2 -0.7 1.3 -1.3 2.4 -1.4 1 -0.1 3 -0.7 4.4 -1.5 1.4 -0.8 3.2 -1.5 4 -1.6 0.8 -0.1 3.8 -0.5 6.5 -0.9 7.4 -1.2 27.8 -0.6 36.4 1 2 0.4 4.9 1.9 6.5 3.3 1.6 1.5 2.6 2.1 2.2 1.5 -0.4 -0.7 -0.3 -1.3 0.3 -1.3 0.5 0 1.3 0.9 1.6 2 0.4 1.1 1 1.8 1.5 1.5 0.4 -0.2 1.5 1 2.3 2.7 1.2 2.5 1.3 3.6 0.4 4.7 -0.9 1.2 -0.9 1.3 0.1 0.7 0.9 -0.5 1.2 0.6 1.2 4.6 0 4.1 -0.3 4.9 -1.1 3.8 -0.9 -1.2 -1 -1.2 -0.5 0.4 0.8 2.5 -1.4 8.6 -3.2 8.6 -0.7 0 -1 0.5 -0.6 1.1 0.9 1.4 -1.6 5.9 -3.3 5.9 -0.7 0 -1.3 1.1 -1.3 2.5 0 1.4 -0.7 2.8 -1.6 3.2 -1 0.4 -1.2 0.8 -0.5 1.3 1.2 0.7 -2.7 5.9 -8.6 11.3 -1.8 1.7 -3.3 3.7 -3.3 4.4 0 0.7 -0.7 1.3 -1.6 1.3 -1.3 0 -1.4 0.3 -0.5 1.4 0.6 0.7 4.1 1.7 7.7 2.1 4.5 0.5 6.7 1.2 7.1 2.2 0.6 1.4 0.8 1.4 1.8 -0.1 1.1 -1.4 1.3 -1.5 1.8 -0.1 0.4 0.9 1.3 1.2 2.3 0.8 1.2 -0.4 1.5 -0.3 1 0.5 -0.5 0.8 0.2 1.2 2.3 1.2 1.6 0 3.6 0.7 4.5 1.5 0.8 0.8 1.8 1.5 2.3 1.5 0.5 0 1.7 1.5 2.7 3.4 2.1 4 1.7 7.1 -1.4 10.4 -1.1 1.2 -1.8 2.2 -1.5 2.2 0.3 0 -0.3 1 -1.5 2.2 -1.1 1.2 -2 2.5 -2 2.9 0 1.4 -4.2 4.9 -5.2 4.3 -0.4 -0.3 -0.8 0 -0.8 0.6 0 1.2 -6.5 8 -7.7 8 -0.5 0 -1.6 0.9 -2.6 2 -1.7 2 -4.7 2.8 -4.7 1.2 0 -0.4 -0.8 -0.8 -1.7 -0.8 -2.7 0 -21.8 -4.8 -22.1 -5.5 -0.1 -0.3 -1.6 -0.3 -3.2 -0.1 -1.7 0.2 -3 0 -3 -0.4 0 -0.5 -4.2 -1 -9.2 -1.2 -5.1 -0.1 -9.7 -0.6 -10.2 -1 -0.6 -0.5 -8.1 -0.5 -16.6 -0.1 -8.5 0.4 -16.3 0.5 -17.4 0.2 -1 -0.3 -2.1 -0.1 -2.5 0.5 -0.3 0.5 -2.8 1.4 -5.6 2 l-5 1.1 4.5 -0.5 c23 -2.4 47.6 -2.1 64 0.6 5.5 0.9 19.4 4.2 27.8 6.6 3.7 1.1 2.5 2.1 -2.8 2.3 -2.8 0.1 -5 -0.3 -5 -0.9 0 -0.5 -1.6 -1 -3.5 -1 -1.9 0 -3.5 -0.4 -3.5 -0.9 0 -0.4 -3.2 -1.1 -7.2 -1.5 -4 -0.4 -7.6 -1.2 -8 -1.9 -0.5 -0.8 -3 -1.1 -7.4 -0.9 -3.7 0.1 -7 -0.1 -7.3 -0.6 -0.9 -1.4 -11.1 -2.5 -11.1 -1.2 0 0.6 -2.8 1 -7 1 -3.9 0 -7 -0.4 -7 -1 0 -1.1 -6.3 -0.1 -6.8 1.2 -0.2 0.4 -1.8 0.8 -3.5 0.8 -3.8 0 -29.9 5.3 -34 6.9 -3.9 1.5 -9 1.4 -8.5 -0.1z m14.2 -7 c-1.9 -0.5 -3.1 -0.3 -3.6 0.5 -1.4 2.2 -0.8 2.5 2.8 1.4 l3.7 -1.1 -2.9 -0.8z m9.6 -0.8 c2 -0.6 2.1 -0.8 0.5 -0.8 -1.1 0 -3.1 0.4 -4.5 0.8 -2 0.6 -2.1 0.8 -0.5 0.8 1.1 0 3.1 -0.4 4.5 -0.8z"/>
 </g>
 <g fill="#42b9ed">
  <path d="M745.2 738.3 c-2.3 -0.2 -4.1 -0.7 -3.8 -1.1 0.2 -0.4 -1.7 -0.7 -4.2 -0.7 -6.3 0 -24.3 -4.5 -23.5 -5.8 0.3 -0.6 0.1 -0.7 -0.6 -0.3 -1.5 1 -7.3 -0.3 -6.6 -1.5 0.4 -0.5 0 -0.6 -0.7 -0.4 -2.9 1.1 -33.3 -12 -32.1 -13.8 0.3 -0.6 0.1 -0.7 -0.5 -0.4 -1.5 1 -4.3 -0.3 -3.5 -1.6 0.3 -0.6 0.1 -0.7 -0.5 -0.3 -1.2 0.7 -14.7 -7.3 -22 -13.1 -13.1 -10.4 -20.1 -16.7 -19.9 -17.7 0.1 -0.6 -0.3 -1 -1 -0.9 -1.1 0.2 -14.8 -14.1 -14.8 -15.5 0 -0.3 -1 -1.6 -2.3 -2.9 -1.3 -1.3 -2 -2.8 -1.7 -3.3 0.4 -0.6 0.1 -0.9 -0.7 -0.8 -0.7 0.2 -1.2 -0.3 -1.1 -0.9 0.2 -0.7 -0.1 -1.3 -0.7 -1.3 -0.5 0 -2.3 -2 -4 -4.5 -1.7 -2.5 -2.6 -4.5 -2 -4.5 0.5 0 1 -0.9 1 -2 0 -1.7 0.7 -2 4.3 -2 5.3 0 20.7 1.9 22 2.7 1.4 0.9 16 0.3 17.2 -0.6 1 -0.9 4.9 -1.8 11.8 -2.8 3.3 -0.4 3.7 -0.3 3.7 1.6 0 2.8 4.5 2.9 6 0.1 0.7 -1.3 2.5 -2.1 6 -2.6 4 -0.5 4.9 -1 5.2 -2.8 0.3 -1.8 1.1 -2.1 6.1 -2.4 4.6 -0.2 5.7 0 5.7 1.3 0 0.9 0.9 1.5 2.5 1.5 1.6 0 2.5 -0.6 2.5 -1.5 0 -1.1 1.1 -1.5 4 -1.5 3.4 0 4 0.3 4 2.1 0 1.7 0.4 2 2.3 1.5 1.2 -0.3 2.8 -0.6 3.5 -0.6 0.6 0 1.2 -0.6 1.2 -1.4 0 -1 2 -1.6 7.4 -2.1 4.1 -0.4 7.9 -0.4 8.5 -0.1 0.5 0.4 2.8 0.4 5 0 5.2 -0.8 5.6 -3.4 0.6 -3.4 -3.4 0 -3.5 -0.2 -3.5 -3.6 0 -4.2 -0.3 -4.2 10 0.2 5.7 2.4 7.8 2.8 17 2.8 11.6 0 17.8 -1.6 27 -7.3 l5 -3.1 0 3 c0 1.7 -0.4 3 -1 3 -0.5 0 -1 0.5 -1 1 0 0.6 0.7 1 1.5 1 0.9 0 1.5 0.9 1.5 2.5 0 2.2 0.4 2.5 3.9 2.5 2.2 0 4.2 0.4 4.5 0.9 0.3 0.4 2.5 1.2 4.8 1.6 5.8 1 23.8 1.2 23.8 0.3 0 -0.5 2 -0.8 4.5 -0.8 3.2 0 4.5 0.4 4.5 1.4 0 1.7 4.8 2.8 11.8 2.6 4.6 -0.1 5.2 0.1 5.2 2 0 1.6 0.6 2 3.5 2 2.7 0 3.5 0.4 3.5 1.8 0.1 1.4 0.3 1.4 1.9 -0.5 2.1 -2.5 8.1 -3.2 8.2 -1 0 0.6 0.4 0.2 0.9 -1 0.8 -1.9 1.7 -2.3 5 -2.3 3.5 0 4 0.3 4 2.3 0 2 0.4 2.2 4.5 1.9 3.1 -0.3 4.9 0.1 6 1.2 0.9 0.9 2.3 1.6 3.1 1.6 0.8 0 1.4 0.4 1.4 0.9 0 0.5 2.9 0.6 6.5 0.3 6.5 -0.5 6.5 -0.5 6.5 2.2 0 2.4 0.4 2.6 3.9 2.6 2.4 0 4.1 0.5 4.4 1.4 0.6 1.5 6.5 2.7 7.3 1.4 0.3 -0.4 2 -0.8 3.7 -0.8 l3.2 0.1 -3.4 2.9 c-1.9 1.6 -3.2 3.3 -2.8 3.6 1.4 1.4 -21.9 26.8 -23.6 25.7 -0.5 -0.3 -0.7 -0.1 -0.4 0.4 0.8 1.3 -1.7 3.6 -2.7 2.5 -0.4 -0.4 -0.6 -0.2 -0.4 0.4 0.7 2.5 -25.4 21.8 -28.3 20.9 -0.9 -0.3 -2 -0.1 -2.4 0.4 -0.3 0.7 0 0.8 0.9 0.5 0.9 -0.3 1.6 -0.3 1.6 0 0 1.1 -13.5 7.3 -14.9 6.8 -0.8 -0.2 -1.1 0 -0.8 0.5 0.7 1.1 -1.5 2.3 -11.2 5.9 -3.5 1.3 -7.3 2.2 -8.3 1.8 -1.1 -0.3 -2 0 -2.4 0.9 -0.7 1.8 -8.8 4.2 -10.5 3.2 -0.7 -0.5 -1 -0.4 -0.6 0.2 0.8 1.2 -17.6 4.9 -19.2 3.9 -0.5 -0.3 -1.1 -0.1 -1.3 0.6 -0.3 0.9 -6.6 1.2 -23.4 1.4 -12.6 0.1 -24.8 0 -27.2 -0.3z m17.6 -1 c-1 -0.2 -2.8 -0.2 -4 0 -1.3 0.2 -0.5 0.4 1.7 0.4 2.2 0.1 3.2 -0.1 2.3 -0.4z"/>
  <path d="M590.5 634 c-2 -3.8 -1.9 -4 1 -4 2.2 0 2.5 0.4 2.5 3.5 0 4.3 -1.4 4.5 -3.5 0.5z"/>
  <path d="M580.2 609.8 c-1.7 -5.1 -3.5 -11 -4.1 -13 -0.9 -3.6 -0.8 -3.8 1.4 -3.8 1.8 0 2.4 0.7 3 3.8 0.7 4.2 3.3 12.8 4.6 15.4 1.4 2.7 1.1 6.8 -0.4 6.8 -0.8 0 -2.6 -3.8 -4.5 -9.2z"/>
  <path d="M574.3 586.8 c0.3 -1 0.1 -1.6 -0.4 -1.2 -0.5 0.3 -0.9 -0.7 -0.9 -2.3 0 -2.2 0.2 -2.5 1 -1.3 0.6 1 1 1.1 1 0.3 0 -0.7 0.5 -1.3 1 -1.3 0.6 0 1 1.7 1 3.8 0 2.9 -0.4 3.9 -1.6 3.9 -1 0 -1.4 -0.7 -1.1 -1.9z"/>
  <path d="M571.7 575.8 c-0.3 -1.3 -0.9 -5.1 -1.3 -8.5 -0.6 -6 -0.5 -6.3 1.5 -6.3 1.5 0 2.1 0.6 2.1 2.4 0 1.2 0.3 5.1 0.6 8.5 0.6 5.1 0.4 6.1 -0.8 6.1 -0.9 0 -1.8 -1 -2.1 -2.2z"/>
  <path d="M570.3 556 c0.3 -1.1 0.2 -1.8 -0.3 -1.5 -0.9 0.6 -1.3 -14.5 -0.4 -18 0.3 -1.4 1.2 -2.5 2 -2.5 1.1 0 1.4 2.4 1.4 12 0 10.4 -0.2 12 -1.6 12 -1.1 0 -1.5 -0.6 -1.1 -2z"/>
  <path d="M954 545.1 c0 -4.5 0.4 -6.1 1.4 -6.1 1.7 0 2.4 2.5 2.2 7.6 -0.1 2.8 -0.6 4 -1.9 4.2 -1.5 0.3 -1.7 -0.5 -1.7 -5.7z"/>
  <path d="M570.5 524.8 c1.4 -10.8 4.6 -24.9 7.8 -34.4 3.4 -10.4 5.7 -13.2 5.7 -7 0 2 -0.4 3.6 -0.9 3.6 -0.4 0 -1.1 1.9 -1.4 4.2 -0.3 2.4 -1.1 4.4 -1.6 4.6 -0.6 0.2 -1.1 1.6 -1.1 3 0 1.5 -0.7 5.1 -1.4 8 -0.8 2.9 -2 9.4 -2.7 14.3 -1.1 7.6 -1.6 8.9 -3.2 8.9 -1.7 0 -1.8 -0.5 -1.2 -5.2z"/>
  <path d="M951.6 519.3 c-1 -6.2 -0.7 -9.3 0.8 -9.3 1.4 0 2.6 2.9 2.6 6.3 0 1.1 -0.4 1.5 -1.1 1.1 -0.7 -0.4 -1 -0.1 -0.7 0.7 0.3 0.8 1.1 1.3 1.7 1.2 0.6 -0.2 1.1 0.6 1.1 1.7 0 1.3 -0.7 2 -1.9 2 -1.4 0 -2 -1 -2.5 -3.7z"/>
  <path d="M948.2 502.9 c-1.6 -6.7 -1.5 -9.9 0.2 -9.9 0.8 0 2 2.4 3 6.5 2 8.1 2 8.5 -0.2 8.5 -1.4 0 -2.1 -1.3 -3 -5.1z"/>
  <path d="M944 488.1 c-0.5 -1.1 -1 -2.7 -1 -3.5 0 -0.9 -0.4 -1.6 -1 -1.6 -0.5 0 -1 -1.1 -1 -2.5 0 -1.4 -0.5 -2.5 -1.1 -2.5 -0.6 0 -0.9 -1.4 -0.7 -3.2 0.2 -1.8 0.7 -3.3 1.3 -3.3 1.1 0 7.3 14.1 7.4 16.8 0.1 2.3 -2.6 2.2 -3.9 -0.2z"/>
  <path d="M583 477.5 c0 -1.4 4.3 -9.5 5.1 -9.5 1 0 1.2 4.4 0.3 7.8 -0.4 1.5 -1.4 2.2 -3 2.2 -1.3 0 -2.4 -0.2 -2.4 -0.5z"/>
  <path d="M930 456.5 c0 -2.8 -0.4 -3.5 -2 -3.5 -1.6 0 -2 -0.7 -2 -3 0 -1.6 -0.5 -3 -1.1 -3 -2.6 0 -5.9 -4.5 -5.8 -8 l0 -3.5 3.2 3.7 c1.8 2 5.6 7.5 8.4 12.2 l5.3 8.6 -3 0 c-2.8 0 -3 -0.3 -3 -3.5z"/>
  <path d="M596.2 451.5 c2.9 -4.4 3.8 -4.4 3.8 0 0 3.2 -0.2 3.5 -3 3.5 l-3 0 2.2 -3.5z"/>
  <path d="M607 436.3 c5.8 -7.4 11.4 -13.2 12.3 -12.6 0.5 0.3 0.7 0.2 0.4 -0.4 -0.9 -1.5 9.8 -11.7 11.4 -10.8 0.7 0.5 1 0.4 0.5 -0.3 -0.3 -0.6 -0.2 -1.3 0.4 -1.7 0.6 -0.4 1 0.5 1 1.9 0 1.6 -1.4 4 -3.4 6.2 -2.7 2.9 -4 3.6 -6 3.2 -2.4 -0.5 -2.6 -0.2 -2.6 2.7 0 3.4 -3.4 7.5 -6.2 7.5 -1.1 0 -1.8 1 -2 2.8 -0.3 2.3 -0.8 2.8 -3.7 3 -3.2 0.3 -3.4 0.2 -2.1 -1.5z"/>
  <path d="M912.8 433.8 c-0.7 -5.6 -0.5 -6.8 0.9 -5.6 0.8 0.6 2.3 2.4 3.4 4 l2 2.8 -3 0 c-1.7 0 -3.2 -0.6 -3.3 -1.2z"/>
  <path d="M902 422.4 c-4.1 -3.7 -5.6 -7.9 -2.3 -6.7 1.2 0.5 1.4 0.3 0.8 -0.8 -1.2 -2.1 6.4 5.2 8.7 8.4 l1.9 2.7 -2.5 0 c-1.6 0 -4.2 -1.4 -6.6 -3.6z"/>
  <path d="M890 410 c0 -1.3 0.7 -2 1.8 -2 1.1 0 2.7 0.9 3.7 2 1.8 2 1.7 2 -1.8 2 -3 0 -3.7 -0.4 -3.7 -2z"/>
  <path d="M636 406.5 c1.8 -1.9 2.6 -2.2 3.2 -1.3 0.6 1 0.8 0.9 0.8 -0.3 0 -2 5.7 -6.2 7.2 -5.3 0.6 0.4 0.8 0.3 0.4 -0.4 -0.3 -0.6 -0.2 -1.3 0.4 -1.7 0.6 -0.4 1 0.6 1 2.4 0 2.4 -0.4 3.1 -2 3.1 -1.1 0 -2 0.7 -2 1.5 0 0.8 -0.9 1.5 -2 1.5 -1.1 0 -2 0.7 -2 1.5 0 1.1 -1.1 1.5 -3.7 1.5 l-3.6 0 2.3 -2.5z"/>
  <path d="M884 403.9 c0 -2.9 0.1 -3 2.2 -1.5 3.1 2.2 3.2 4.6 0.2 4.6 -2 0 -2.4 -0.5 -2.4 -3.1z"/>
  <path d="M870.7 397.3 c-0.9 -0.8 -0.9 -5.3 -0.1 -5.3 1.3 0 7.4 4.2 7.4 5.1 0 1 -6.3 1.2 -7.3 0.2z"/>
  <path d="M654 394.2 c0 -1.3 4 -3.3 5.2 -2.6 0.7 0.4 0.8 0.3 0.4 -0.4 -0.3 -0.6 0.3 -1.6 1.4 -2.2 3 -1.6 3.9 1.5 1.2 4.1 -2 1.8 -8.2 2.7 -8.2 1.1z"/>
  <path d="M857.3 389.3 c-0.7 -0.2 -1.3 -1.3 -1.3 -2.4 0 -1.5 -0.7 -1.9 -3.5 -1.9 -1.9 0 -3.5 -0.4 -3.5 -1 0 -0.5 -0.9 -1 -2 -1 -1.1 0 -2 -0.4 -2 -1 0 -0.5 -1 -1 -2.2 -1 -3.3 0 -5 -1.4 -4.6 -3.8 0.3 -2 0.4 -2 6.8 0.7 9.7 4.2 20.1 10.2 19.4 11.2 -0.5 0.9 -5 1.1 -7.1 0.2z"/>
  <path d="M677 382 c0 -0.8 5 -4 6.2 -4 0.2 0 0.5 1.1 0.6 2.5 0.2 2.2 -0.2 2.5 -3.3 2.5 -1.9 0 -3.5 -0.4 -3.5 -1z"/>
  <path d="M686 378 c0 -1.3 3.8 -3.2 5 -2.5 0.6 0.3 1 0.2 1 -0.3 0 -0.5 0.8 -1.2 1.9 -1.5 2.3 -0.6 2.4 2.9 0.1 4.3 -2 1.3 -8 1.3 -8 0z"/>
 </g>
 <g fill="#4ac6fa">
  <path d="M618.1 673 c-2.6 -2.7 -4.1 -6 -2.7 -6 0.9 0 6.8 8.1 6.3 8.6 -0.2 0.3 -1.9 -0.9 -3.6 -2.6z"/>
  <path d="M611 662.5 c0 -0.9 -0.9 -1.9 -2.1 -2.3 -1.1 -0.5 -2 -1.1 -2 -1.5 0.3 -2.1 0 -2.7 -1.4 -2.7 -0.8 0 -1.5 -0.7 -1.5 -1.5 0 -0.8 -0.4 -1.5 -0.9 -1.5 -2.9 0 -20.7 -33.4 -19.8 -37 0.3 -1.1 0 -1.8 -0.5 -1.7 -1.3 0.3 -4 -8.3 -3.2 -10.3 0.3 -0.8 0.2 -1.1 -0.3 -0.7 -0.8 0.9 -3.4 -7.1 -3.7 -11 0 -1.3 -0.5 -2.3 -0.9 -2.3 -0.5 0 -0.7 -1 -0.6 -2.2 0.2 -1.3 0 -2.9 -0.5 -3.7 -1.6 -2.6 -3.5 -22.6 -3.5 -38.6 -0.1 -11.5 0.4 -19.4 1.9 -28 2.4 -15.2 8.2 -35.6 11.9 -42.2 0.6 -1 2.6 -5.2 4.5 -9.3 1.9 -4.1 4.6 -9.2 6 -11.3 1.4 -2.1 3.3 -5.1 4.1 -6.8 0.9 -1.7 2.1 -2.7 2.7 -2.3 0.6 0.4 0.8 0.3 0.4 -0.4 -0.3 -0.6 2.1 -4.3 5.4 -8.4 5.9 -7.3 17.4 -19.9 15 -16.6 -0.7 1 -1 1.8 -0.7 1.8 0.4 0 1.8 -1.7 3.2 -3.7 1.4 -2.1 2.7 -3.7 3 -3.5 1.3 0.6 2.5 0.1 2.3 -1.1 -0.2 -0.6 0.3 -1.1 1 -0.9 0.8 0.1 1.1 -0.1 0.8 -0.6 -0.6 -1 0.2 -2.1 3.3 -4.7 1.6 -1.3 2.2 -1.5 1.7 -0.5 -0.5 0.9 -0.2 0.8 0.7 -0.2 0.8 -1 1.7 -1.5 2 -1.1 0.4 0.3 0.7 0 0.7 -0.8 0 -1.6 5.5 -5.6 7.1 -5.1 0.6 0.1 0.8 -0.2 0.4 -0.7 -0.7 -1.2 2.9 -3.3 4 -2.3 0.5 0.4 0.5 0.2 0.2 -0.4 -0.7 -1.3 6.6 -5.7 7.8 -4.6 0.5 0.4 0.4 0.1 0 -0.7 -0.6 -1.1 -0.4 -1.3 0.8 -0.8 0.9 0.3 1.6 0.3 1.4 -0.1 -0.1 -0.4 0.3 -0.9 0.8 -1.1 0.6 -0.3 1.6 -1.1 2.3 -1.8 1.6 -1.6 3.6 -1.7 2.6 -0.1 -0.4 0.7 -0.3 0.8 0.5 0.4 0.6 -0.4 0.9 -1.1 0.7 -1.5 -0.8 -1.2 4 -3.4 5.5 -2.6 0.7 0.5 1 0.4 0.6 -0.2 -0.8 -1.3 2 -2.6 3.5 -1.6 0.6 0.3 0.8 0.2 0.5 -0.3 -0.5 -1 7.2 -5 10.9 -5.7 1 -0.2 3.6 -1.1 5.6 -2.1 2.1 -0.9 4.3 -1.6 5.1 -1.6 0.7 0 1.8 -0.5 2.3 -1 1.6 -1.6 22.9 -6.7 35.6 -8.6 15.3 -2.2 47.7 -1.5 62.4 1.4 13.4 2.7 26.4 6.3 26.4 7.4 0 0.4 0.9 0.8 2 0.8 2 0 17.4 6.4 24.5 10.2 2.2 1.1 6.3 3.3 9.1 4.8 2.8 1.5 6.7 3.8 8.5 5.1 1.9 1.3 4.7 3.1 6.4 4.1 1.6 0.9 2.9 2.1 2.8 2.7 -0.2 0.6 0.4 1.1 1.3 1.1 1.9 0 7 4 6.9 5.5 0 0.5 1.4 1.6 3 2.4 4.4 2 7.8 5.3 6.4 6.2 -0.7 0.4 -0.3 1 1.2 1.4 3 0.9 7.9 5.4 7.9 7.2 0 0.8 0.4 1.2 0.9 0.9 1.3 -0.8 7 5.4 6.5 6.9 -0.3 0.7 0.3 1.5 1.4 1.7 1 0.3 2.9 2 4.2 3.8 1.3 1.9 1.7 3 0.9 2.6 -0.7 -0.5 -0.1 0.3 1.5 1.6 1.9 1.6 2.6 2.9 2.1 3.8 -0.5 0.8 -0.4 1.1 0.3 0.6 0.9 -0.5 8.2 9.2 8.2 11 0 0.2 1 1.8 2.1 3.3 1.2 1.6 1.8 3.4 1.5 4 -0.4 0.6 -0.2 1.1 0.4 1.1 0.6 0 2 2.1 3.1 4.7 3.1 7.5 4.1 9.6 5.2 12 0.5 1.2 0.7 2.9 0.3 3.8 -0.4 1.1 -0.2 1.4 0.6 0.9 0.8 -0.5 0.9 -0.2 0.5 1 -0.4 1 -0.3 1.5 0.3 1.1 0.6 -0.3 1 -0.4 1 -0.1 0 0.3 1.3 5.4 2.9 11.3 3.4 13 4.6 19.7 3.1 18.8 -0.5 -0.3 -1 -0.1 -1 0.5 0 0.6 0.6 1.3 1.4 1.6 1.6 0.6 2.4 7.4 3 27.4 0.9 28.5 -5.9 59.5 -18.8 86.6 -7.3 15.2 -14.1 25.8 -16.1 25 -0.9 -0.3 -1.2 0.2 -1 1.6 0.3 1.1 0.2 1.8 -0.1 1.5 -0.3 -0.3 -1.6 -0.2 -2.9 0.3 -1.8 0.7 -2.5 0.5 -2.9 -0.7 -0.4 -1 -1.4 -1.3 -2.7 -1 -1.3 0.4 -2.4 -0.1 -3.2 -1.4 -1.4 -2.3 -5.7 -2.6 -5.7 -0.4 0 2 -1.9 1.9 -3.9 -0.3 -0.9 -1 -3.5 -2.6 -5.9 -3.7 -3.7 -1.6 -4.5 -1.7 -5.3 -0.4 -0.7 1.1 -0.9 0.9 -0.9 -0.7 0 -1.5 -0.8 -2.4 -2.5 -2.8 -1.4 -0.4 -2.5 -1.1 -2.5 -1.6 0 -1.6 -2.2 -1.1 -3.5 0.7 -1.1 1.5 -1.6 1.6 -3.8 0.4 -3.5 -1.9 -5.6 -0.9 -5 2.3 0.3 1.5 0.1 2.6 -0.6 2.6 -0.6 0 -1.2 -0.7 -1.2 -1.5 -0.3 -2.9 -0.4 -3.3 -1.2 -4.2 -0.5 -0.4 -1.5 0.1 -2.3 1.1 -0.8 1.1 -1.5 1.4 -1.5 0.8 -0.1 -0.7 -0.3 -1.6 -0.4 -2.2 -0.1 -0.5 -0.3 -1.6 -0.4 -2.2 0 -0.7 -0.8 -0.2 -1.7 1 -1.2 1.8 -2.4 2.2 -5.2 2 -2.4 -0.2 -3.6 -0.8 -3.4 -1.6 0.2 -1 -0.7 -1.1 -3.3 -0.6 -3.3 0.6 -3.5 0.5 -3.5 -2.2 -0.1 -2.5 -0.2 -2.6 -1.1 -1.1 -0.8 1.3 -1.4 1.5 -2.9 0.7 -1.3 -0.7 -2 -0.6 -2.3 0.3 -0.4 0.8 -0.8 0.9 -1.4 0.1 -1.4 -1.9 -5.1 -3.5 -5.5 -2.3 -0.6 1.7 -3.8 -0.2 -3.8 -2.2 0 -1 -0.7 -1.9 -1.5 -1.9 -0.8 0 -1.5 0.5 -1.5 1.1 0 0.8 -1.6 1 -4.9 0.6 -4.6 -0.5 -5 -0.4 -5.3 1.6 -0.4 2.9 -3.2 2.8 -3.6 0 -0.2 -1.3 -0.7 -2.3 -1.2 -2.3 -1.8 0 -6.5 2.2 -7.2 3.3 -0.6 0.9 -0.8 0.9 -0.8 0 0 -0.7 -0.6 -1.3 -1.4 -1.3 -0.8 0 -1.6 -0.4 -1.8 -0.9 -0.1 -0.5 -1.5 -1.2 -2.9 -1.6 -2.3 -0.6 -2.8 -0.3 -3.4 2.2 l-0.9 2.8 -0.5 -3.4 c-0.7 -4 -2.6 -5.1 -3.6 -2.2 -0.7 2.4 -2.5 2.8 -2.5 0.7 0 -0.8 -0.7 -1.6 -1.5 -2 -0.8 -0.3 -1.5 -1.7 -1.5 -3.1 0 -2 -0.4 -2.6 -1.7 -2.3 -1 0.2 -1.9 1.2 -2.2 2.3 -0.5 2.8 -4 5 -7.8 5 -2.5 0 -3.3 -0.4 -3.3 -1.7 0 -1 -0.7 -1.8 -1.5 -1.8 -2.7 0 -1.6 -2.1 2 -3.6 5 -2.1 4.3 -2.5 -1.2 -0.6 -3.1 1 -8.7 1.5 -15.8 1.6 -6 0 -10.2 0.2 -9.2 0.4 2.6 0.5 2 2.2 -0.8 2.2 -1.4 0 -2.5 0.6 -2.5 1.3 0 0.9 -1.2 1.1 -4 0.9 -2.6 -0.3 -4 0 -4 0.8 0 0.8 -1 0.9 -3 0.5 -2.3 -0.5 -3 -0.3 -3 0.9 0 0.9 -0.7 1.6 -1.5 1.6 -0.8 0 -1.5 0.5 -1.5 1 0 1.3 -6.2 0.8 -7.2 -0.5 -0.5 -0.6 -1.2 -0.4 -1.8 0.5 -0.7 1.1 -0.5 1.8 0.5 2.6 2.1 1.6 1.8 3.1 -0.7 3.8 -3.4 0.9 -3.5 0.8 -4.1 -2.3 -0.5 -2.3 -1 -2.8 -2.6 -2.4 -1 0.3 -2.8 0 -3.9 -0.6 -1.6 -0.9 -2.1 -0.7 -2.5 0.9 -0.3 1.1 -1.3 2 -2.2 2 -1.2 0 -1.5 -0.6 -1.1 -2 0.3 -1.1 0.9 -2.9 1.2 -4 0.3 -1.1 0.1 -2 -0.5 -2 -0.6 0 -1.1 0.7 -1.1 1.5 0 1.1 -1.1 1.5 -4.1 1.5 -3 0 -4.7 0.6 -6 2.2 -1.6 1.7 -1.9 1.8 -1.9 0.5 0 -2.1 -2.3 -2.2 -4 -0.2 -1.4 1.7 -5 2 -5 0.5 0 -1.6 -5.3 0 -7 2 -1.4 1.7 -5.6 2.5 -10.2 2.1 -1.1 0 -1.8 -0.9 -1.8 -2.1 0 -1.7 -0.3 -1.9 -1.9 -1 -1.1 0.5 -3 1 -4.3 1 -1.3 0 -2.9 0.5 -3.5 1.1 -0.6 0.6 -3 1.3 -5.4 1.4 -2.3 0.2 -4.6 1 -5 1.7 -0.7 1 -0.9 0.8 -0.9 -0.5 0 -2.8 -4.4 -1.8 -4.8 1.1 -0.3 2.2 -0.4 2.3 -2 0.5 -3 -3.2 -7.2 -4.7 -13 -4.7 -3.2 0 -6 -0.4 -6.3 -0.9 -0.3 -0.5 -1.8 -0.7 -3.2 -0.5 l-2.5 0.3 2 4.3 c1.2 2.5 2.9 4.4 4.2 4.8 1.7 0.4 2.2 1.3 2.2 4.5 0.1 2.1 0 3.9 -0.2 3.9 -0.2 0 -0.4 -0.7 -0.4 -1.5z m289.8 -9.2 c0.2 -0.8 -0.5 -1.3 -1.7 -1.3 -1.2 0 -2.1 0.6 -2.1 1.6 0 1.8 3.1 1.5 3.8 -0.3z m-215.8 -12.9 c0 -1.1 -0.8 -1.4 -2.7 -1.2 -3.9 0.4 -4.2 2.8 -0.4 2.8 2.1 0 3.1 -0.5 3.1 -1.6z m36.8 -0.1 c-0.5 -2.6 -3.8 -2.9 -3.8 -0.4 0 1.5 0.6 2.1 2.1 2.1 1.4 0 1.9 -0.5 1.7 -1.7z m56.2 -6.8 c0 -0.8 -0.6 -1.5 -1.4 -1.5 -1.7 0 -2.8 1.4 -1.9 2.4 1.2 1.2 3.3 0.6 3.3 -0.9z m-14.8 -2.6 c10.3 -2.2 18.7 -7 27 -15.7 4.1 -4.3 8.8 -10 10.3 -12.6 2.1 -3.5 3.2 -4.5 4.4 -4 13.6 5.9 36.7 8.1 52.2 4.9 28.6 -5.7 51.8 -25.7 60.6 -52 2.5 -7.3 2.7 -9.4 2.8 -23.5 0 -13.6 -0.3 -16.4 -2.3 -23 -9 -28.5 -30.9 -49.8 -58.8 -57.1 -10.9 -2.8 -30.7 -2.9 -41.5 0 -23.7 6.2 -43.5 22 -56 44.8 -1.9 3.5 -4 6.3 -4.6 6.3 -0.7 0 -1.9 -1.6 -2.7 -3.5 -4.6 -10.8 -18.2 -27.3 -29.2 -35.1 -14.4 -10.3 -28.9 -14.8 -46.9 -14.7 -27.5 0.1 -49.3 12 -65.4 35.6 -17 24.9 -17.3 62.6 -0.7 87.6 10.8 16.3 26.5 26.9 48.6 32.8 7.9 2.1 36.5 2.5 41.8 0.6 1.7 -0.7 3.2 -0.8 3.2 -0.3 0 1.8 12 15.6 16.7 19.2 12.3 9.3 26.3 12.7 40.5 9.7z m15.8 -2.9 c0.8 -0.5 1.2 -1.1 0.9 -1.4 -0.3 -0.3 -1.4 0.1 -2.5 0.9 -2.1 1.6 -0.8 2 1.6 0.5z"/>
  <path d="M690 645.5 c0 -0.8 0.7 -1.5 1.5 -1.5 0.8 0 1.5 0.7 1.5 1.5 0 0.8 -0.7 1.5 -1.5 1.5 -0.8 0 -1.5 -0.7 -1.5 -1.5z"/>
  <path d="M747 638.1 l0 -3.1 7 0 c4 0 7 0.4 7 1 0 0.6 0.9 1 2 1 1.1 0 2 0.4 2 0.9 0 0.5 -0.9 1.1 -2 1.4 -1.1 0.3 -2 0.2 -2 -0.2 0 -0.8 -7.8 0.2 -11.7 1.4 -2.1 0.7 -2.3 0.4 -2.3 -2.4z"/>
 </g>
</svg>